<svg width="187" height="189" viewBox="0 0 187 189" fill="none" xmlns="http://www.w3.org/2000/svg">
<g filter="url(#filter0_f_927_1222)">
<path d="M24.8423 101.601L25.0492 99.3344C28.1868 101.343 39.328 103.018 46.3945 102.561L49.1212 100.688L48.7795 103.775C48.5092 106.06 48.4622 108.272 48.6282 110.427C50.5953 111.344 52.4901 111.792 54.3158 111.759C52.0664 101.736 53.0306 90.7746 54.4178 80.8083C51.1163 86.8857 49.3558 93.5678 49.115 100.867L48.2 101.641C48.1089 101.959 47.7615 104.486 47.5167 104.504C41.3159 104.954 32.8029 102.283 26.8536 101.055C26.0177 100.885 25.2765 104.585 24.8184 104.287L24.058 98.8663C24.1129 97.7127 24.4075 93.623 25.396 91.3214L25.7442 90.3353C28.0762 74.4989 34.066 84.074 38.9056 81.8569L33.1266 81.2018C27.9207 79.8849 29.7209 80.2738 33.8242 77.9048L34.3232 77.7207C32.9137 74.2085 30.1847 71.5027 36.2144 74.3777C39.5815 76.4252 44.6183 80.6112 37.1441 75.988C35.1984 75.3047 23.0892 91.8681 32.3719 73.2701C34.0186 70.9289 36.3068 67.2965 38.5535 65.29C40.2255 60.1913 47.4934 51.351 47.4923 51.3327C47.4838 51.0066 50.1114 49.8145 49.8731 49.4018L49.3313 48.4633C53.2156 53.9295 53.1571 58.2774 47.7335 51.1934L48.8972 49.6703C48.9252 49.342 48.9756 49.0197 49.0749 48.7165C49.6804 46.8819 54.7368 43.3856 56.6535 42.1182C56.9302 41.9584 57.3885 41.7694 57.5316 41.9517C59.3315 44.119 66.1171 45.0284 63.3985 50.2458L63.0746 51.2084C63.4203 51.7088 63.3255 52.3311 62.7933 53.0639C63.5933 53.3682 64.4156 53.6785 65.2644 54.0019C64.8376 53.066 67.1647 50.3699 68.1672 50.7464L66.1766 51.8957L71.6118 44.9269C72.5035 44.6202 70.5579 46.2183 72.7019 43.7679C72.4348 45.1346 72.3494 44.0092 72.2009 43.9814C71.6112 43.8774 63.6595 36.4371 64.9572 34.5148L65.274 33.5563C66.1485 31.434 69.6065 26.9877 71.5748 25.9081C72.0188 25.6612 72.5504 25.7137 73.0282 25.7878C75.0438 26.6577 76.3628 28.5162 76.4762 30.7114L76.4543 30.4241C75.0092 31.7219 73.8004 34.6777 72.8619 36.3451C75.4774 36.6321 78.9119 37.5805 81.2775 38.778L82.7174 38.4962C86.9372 44.4781 84.075 40.8477 82.7174 38.4962L83.791 37.8763L83.9468 36.8027C86.8958 35.5541 90.0716 35.0258 93.4801 35.1956C96.1187 34.2775 98.8273 33.792 101.616 33.7237L102.61 34.5778L103.839 34.5109C104.018 43.1098 102.234 42.4945 102.29 33.3347C103.083 27.2868 104.739 25.2327 107.712 35.435C108.075 34.9985 108.836 35.1462 109.005 35.1518C109.218 35.159 109.998 35.1363 110.37 35.7635L110.924 36.6734L108.89 41.3755L116.408 36.9975L117.558 36.6004L120.229 37.1278C123.539 37.553 130.199 39.7671 132.32 42.2124C133.3 43.6802 129.98 45.7613 128.389 46.3302L128.345 47.2493C126.004 46.3402 123.043 45.3776 120.657 44.7502C122.383 46.61 123.998 48.5718 125.472 50.6339L126.696 52.7538L128.302 54.7815L121.68 56.7433C122.806 55.2041 124.33 54.7989 125.361 52.8984L125.246 52.6984C122.745 49.252 127.564 54.2757 127.853 54.4309C130.012 55.5491 136.402 69.4173 136.292 71.9305C136.287 71.9528 136.282 71.5678 136.397 71.4728C137.451 70.6278 142.497 69.7011 144.004 69.7391C145.602 69.7716 148.151 70.6645 149.498 71.5231C144.683 62.3475 138.652 54.1953 129.88 48.3069L126.875 46.2363C125.728 45.9529 130.658 42.9865 131.107 42.4054C131.4 42.0282 130.484 41.6503 132.17 41.9526C148.736 51.3147 160.924 73.1934 163.161 91.7646C163.98 98.5562 164.04 104.935 163.635 111.638C163.138 119.69 161.238 126.917 157.109 133.888C153.527 139.938 147.788 144.169 140.81 145.549C137.398 146.224 134.309 146.985 130.824 145.668C130.013 145.36 128.653 145.559 128.062 146.355C125.604 149.618 122.208 151.37 119.012 153.698C113.587 157.653 107.634 159.662 100.886 159.245C96.0083 158.94 91.2825 162.075 84.732 160.673C79.1231 160.592 73.9561 158.638 69.2708 155.601C59.5757 155.552 51.969 149.454 46.7506 141.448L43.0736 136.439C41.4391 134.214 40.1083 131.974 38.1619 129.996C31.203 122.89 23.9362 110.673 24.8699 101.632L24.8423 101.601Z" fill="#EF6A22"/>
<path d="M76.402 30.3314L72.7545 26.1809C77.7622 22.2398 85.6626 17.6419 91.9474 19.3858C97.4041 20.9079 101.888 24.5619 105.028 28.9352C105.102 29.6207 104.796 30.3363 104.122 31.0851C104.034 32.6867 103.565 33.6764 102.717 34.0429L101.606 33.9848C95.2326 25.633 87.5664 22.1517 78.6999 29.5502L77.6295 29.2035L76.402 30.3314Z" fill="#EF6A22"/>
<path d="M26.7825 87.8249C26.1065 86.8342 26.7691 85.9504 27.1457 84.9479C27.697 83.4946 29.0576 80.8222 29.8472 79.7326C31.7139 80.6885 37.4621 81.0277 39.6673 81.5706L26.1323 90.6362L26.7825 87.8249Z" fill="#EF6A22"/>
<path d="M79.9474 91.6732L79.2138 92.3521C69.4132 91.8908 70.1368 105.169 79.8999 99.9296L80.8595 100.265C81.4905 103.258 82.2144 106.33 82.8281 109.523C82.8999 110.352 81.2117 110.229 80.6193 110.448C77.355 111.643 73.3628 112.264 69.7328 112.562C67.8559 112.719 66.0749 113.189 64.1121 112.771C62.8028 108.751 63.0163 104.664 62.6836 100.468C61.9967 91.7744 63.1609 83.2895 65.8367 74.9817C66.3168 73.5033 66.2954 71.4347 67.5062 70.4519C68.4005 69.822 69.5092 71.2345 70.1782 71.5576C72.3633 72.6229 74.4903 73.6365 76.5345 75.2277C77.1863 80.8292 78.4306 86.2116 79.9403 91.6772L79.9474 91.6732Z" fill="white"/>
<path d="M144.88 77.3015C148.712 78.3523 150.935 90.869 150.612 97.1088L150.019 108.631L147.932 120.581L145.607 128.365L143.952 132.461C143.166 134.409 141.842 136.866 140.135 138.154C138.429 139.442 135.879 138.465 134.131 138.206C133.974 136.689 134.608 135.708 135.278 134.574C137.526 130.751 139.328 126.778 140.039 122.424C142.275 108.685 141.436 93.5529 138.062 80.0081C139.793 78.3371 142.215 76.5696 144.88 77.3015Z" fill="white"/>
<path d="M127.482 133.39L128.058 130.64C128.965 129.066 127.807 134.539 127.265 133.6C127.705 130.546 123.617 129.45 124.701 131.327C123.617 129.45 128.996 130.098 124.159 130.388C122.564 128.821 123.733 127.912 122.734 125.822C122.037 120.502 120.881 115.485 119.396 110.308C119.749 105.677 120.804 101.313 122.722 97.1312C125.115 93.4608 126.955 89.7502 130.617 86.444C132.327 92.2572 132.878 98.1254 132.994 104.027C133.072 107.784 133.22 111.349 132.749 115.055C132.488 117.126 132.45 119.058 131.991 121.13C131.16 124.901 129.865 133.159 128.501 133.729C128.243 133.84 127.769 133.641 127.482 133.39Z" fill="white"/>
<path d="M99.9536 64.2323C102.055 63.7759 103.235 64.8537 104.791 65.2227C107.825 65.9398 110.559 66.8582 113.229 68.2871C114.609 69.0226 115.089 69.4452 114.952 71.1416C114.458 77.3294 113.521 83.4226 110.461 89.2469C109.027 87.3035 107.646 85.6322 106.447 83.7518C104.275 80.3517 102.873 70.1895 99.9495 64.2252L99.9536 64.2323Z" fill="white"/>
<path d="M83.7733 37.8771C81.7497 34.9782 79.6368 32.1214 77.6203 29.2185C80.2882 27.8106 82.5946 25.7601 85.7081 24.9273C92.7793 23.0202 98.3373 28.797 102.708 34.0579C102.679 34.2358 102.586 34.4028 102.593 34.5786C99.8965 34.4138 97.3622 34.8081 94.7206 35.7374C91.867 36.7417 87.5352 35.2512 83.7733 37.8771Z" fill="white"/>
<path d="M99.2475 56.3256C100.444 52.9105 103.161 50.8501 105.572 48.4557C108.043 49.8855 110.426 51.3095 111.868 53.6928L114.098 60.3886C113.619 60.9679 112.589 60.5599 112.216 59.9144C108.19 58.0862 104.135 57.1075 99.2434 56.3185L99.2475 56.3256Z" fill="white"/>
<path d="M50.36 119.718C52.6756 119.961 54.6668 120.362 56.9986 120.142L62.5044 131.775C63.2778 133.41 64.5889 134.648 64.9634 136.608C60.0344 133.362 56.2545 128.961 52.8778 124.063C51.9533 122.724 50.6603 121.909 50.3671 119.714L50.36 119.718Z" fill="white"/>
<path d="M95.1916 103.444C92.3352 100.61 88.0809 91.9146 88.9874 86.4728C93.2194 90.641 96.0535 95.9757 97.583 101.77C97.8063 102.616 95.7305 103.984 95.1845 103.448L95.1916 103.444Z" fill="white"/>
<path d="M49.8207 68.3569C49.3402 70.4409 48.9463 72.5601 47.9942 74.3677C45.6386 78.8396 43.5183 83.1946 41.8205 87.9867C41.4974 88.9015 40.6844 89.5411 40.6449 90.7179C40.0818 89.2837 40.3182 88.0878 40.6161 86.7525C41.9233 80.9563 43.5586 75.368 46.2853 70.0481C46.7749 69.0939 48.2737 68.4461 49.8207 68.3569Z" fill="#FEFDFE"/>
<path d="M112.579 134.56C113.023 135.363 114.021 136.386 115.102 136.31L116.636 138.574L115.576 144.814C113.599 144.716 111.688 144.306 109.975 143.025L111.237 134.087C112.034 134.043 112.298 134.353 112.59 134.563L112.579 134.56Z" fill="white"/>
<path d="M155.797 107.319C156.137 104.484 155.76 101.997 156.437 99.2218C156.641 98.3949 155.521 97.0455 156.978 96.0626C157.692 102.508 157.498 109.118 156.599 115.738C155.972 120.319 154.958 124.772 152.033 128.684L154.577 117.624L155.797 107.319Z" fill="#FEFCFD"/>
<path d="M76.472 30.7041L81.4219 37.7211C81.7336 38.1465 81.661 38.7087 81.2462 38.8914C81.0028 38.9941 80.4762 39.1468 80.1279 38.9695C77.3898 37.6182 74.6922 37.3691 71.3701 36.9886C72.8194 34.3547 74.6024 32.5119 76.4679 30.697L76.472 30.7041Z" fill="#FFFEFF"/>
<path d="M93.4304 140.092C94.0196 139.392 94.1175 138.333 95.2362 137.895C96.2206 138.765 97.1708 139.739 97.8745 141.007C96.2353 144.819 92.2871 147.335 88.1374 146.373L93.4192 140.089L93.4304 140.092Z" fill="#FFFEFF"/>
<path d="M114.976 128.882C114.629 127.02 113.392 125.616 111.512 125.292C110.927 123.492 110.871 121.576 110.545 119.57L109.745 114.564C109.598 113.637 111.227 112.773 112.205 112.927C112.446 118.34 113.367 123.18 115.887 127.807C116.061 128.124 115.854 128.65 115.687 128.755C115.521 128.861 115.213 128.868 114.969 128.886L114.976 128.882Z" fill="#FFFEFE"/>
<path d="M81.9007 47.8872C82.0544 49.7753 80.5777 51.2805 80.0543 53.0771C79.1945 55.9949 78.8408 56.6437 73.9394 56.8535C75.85 53.5277 78.0468 50.1406 81.8966 47.8801L81.9007 47.8872Z" fill="#FFFEFE"/>
<path d="M122.134 74.439C124.3 75.7329 125.371 77.3091 127.101 79.1759L122.947 83.7594L122.134 74.439Z" fill="#FFFDFE"/>
<path d="M92.2734 117.312C93.1247 116.82 94.0292 116.421 94.8395 115.859L97.5307 119.914L95.7434 124.682C93.65 122.76 93.7344 119.58 92.2693 117.305L92.2734 117.312Z" fill="#FFFEFF"/>
<path d="M92.963 50.7983C93.9749 48.0291 97.6364 44.0991 100.065 45.2415C96.8689 47.8811 95.1677 52.3724 93.7849 52.3857C93.348 52.3826 92.7493 51.3946 92.963 50.7983Z" fill="#FEFCFD"/>
<path d="M92.3877 70.1799C92.4453 68.5103 93.0701 67.1187 94.1907 65.7339C95.5417 68.1887 96.3669 70.5026 97.0779 73.4215C95.202 72.679 94.2473 71.3858 92.3836 70.1728L92.3877 70.1799Z" fill="#FEFDFD"/>
<path d="M96.5992 81.8514C98.931 83.4656 100.963 85.8869 100.559 89.1847C98.707 87.0095 97.6081 84.5983 96.5992 81.8514Z" fill="#FDF2F8"/>
<path d="M107.084 151.419C107.087 150.425 107.797 149.23 108.743 149.099C109.69 148.969 110.85 149.718 111.791 150.282C110.184 151.218 108.686 151.261 107.08 151.412L107.084 151.419Z" fill="#FDF7FA"/>
<path d="M63.0662 51.1943C63.7318 52.1342 64.36 53.124 65.256 53.9877C64.4142 54.3318 62.6077 54.5614 62.0219 53.3011C61.7019 52.6157 62.7262 51.5229 63.0662 51.1943Z" fill="#FDF8FB"/>
<path d="M114.739 96.6896C112.926 95.958 114.124 92.807 116.154 91.4081L114.739 96.6896Z" fill="#FBEAF2"/>
<path d="M100.541 129.29C100.679 130.544 100.42 131.62 99.9733 132.796C99.4269 132.374 99.0293 131.619 99.1131 131.06C99.1902 130.571 99.4609 129.762 100.548 129.286L100.541 129.29Z" fill="#F6D8E9"/>
<path d="M156.424 91.0861C157.218 92.7082 157.217 94.2129 156.826 95.8291C156.042 94.144 156.098 92.7497 156.424 91.0861Z" fill="#EF6A22"/>
<path d="M57.1296 41.9882C61.3456 39.6351 62.8161 37.0771 65.9334 33.873L72.749 41.3434C67.1664 44.0534 66.4474 45.5668 63.0507 50.5525L57.1296 41.9882Z" fill="#EF6A22"/>
</g>
<defs>
<filter id="filter0_f_927_1222" x="18.158" y="13.1055" width="151.621" height="153.83" filterUnits="userSpaceOnUse" color-interpolation-filters="sRGB">
<feFlood flood-opacity="0" result="BackgroundImageFix"/>
<feBlend mode="normal" in="SourceGraphic" in2="BackgroundImageFix" result="shape"/>
<feGaussianBlur stdDeviation="2.95" result="effect1_foregroundBlur_927_1222"/>
</filter>
</defs>
</svg>
