<svg preserveAspectRatio="none" width="100%" height="100%" overflow="visible" style="display: block;" viewBox="0 0 207 215" fill="none" xmlns="http://www.w3.org/2000/svg">
<path id="Vector 24" d="M86.3796 0.180947C54.7556 3.34011 59.3235 49.6736 64.2428 74.9464C52.2959 64.4161 23.764 50.3055 5.21122 78.1056C-13.3415 105.906 22.0774 125.492 42.1059 131.81C32.6187 143.394 16.5958 170.351 28.4021 185.515C40.2085 200.679 69.8648 191.833 83.2172 185.515C86.3796 195.343 99.4508 215 126.437 215C153.423 215 154.547 177.091 151.736 158.136C163.331 167.964 189.896 180.882 203.389 153.924C216.881 126.966 189.333 100.57 173.873 90.742C186.171 78.4566 206.973 50.5161 191.793 37.0372C176.614 23.5584 139.789 50.3757 123.274 65.4692C123.274 49.6736 123.106 -3.48795 86.3796 0.180947Z" fill="var(--fill-0, #4FB4E5)"/>
</svg>
