<svg width="88" height="89" viewBox="0 0 88 89" fill="none" xmlns="http://www.w3.org/2000/svg">
<g filter="url(#filter0_f_927_1192)">
<path d="M11.6733 47.742L11.7706 46.6769C13.2449 47.6207 18.4801 48.4077 21.8006 48.1929L23.0819 47.3129L22.9213 48.7637C22.7943 49.8371 22.7722 50.8765 22.8502 51.8893C23.7746 52.3201 24.6649 52.5305 25.5228 52.5152C24.4658 47.8053 24.9189 42.6547 25.5707 37.9716C24.0194 40.8273 23.1921 43.9672 23.079 47.3971L22.649 47.7609C22.6062 47.91 22.443 49.0977 22.328 49.1063C19.4142 49.3174 15.414 48.0624 12.6184 47.4852C12.2256 47.4053 11.8773 49.1441 11.6621 49.004L11.3048 46.4569C11.3306 45.9149 11.469 43.9932 11.9335 42.9116L12.0971 42.4483C13.1929 35.0068 16.0075 39.5061 18.2816 38.4643L15.5661 38.1565C13.1199 37.5377 13.9658 37.7204 15.8939 36.6072L16.1284 36.5207C15.466 34.8703 14.1837 33.5989 17.017 34.9498C18.5992 35.912 20.966 37.8789 17.4539 35.7065C16.5396 35.3855 10.8495 43.1685 15.2114 34.4294C15.9852 33.3293 17.0605 31.6224 18.1162 30.6796C18.9019 28.2837 22.317 24.1297 22.3165 24.1211C22.3125 23.9678 23.5472 23.4077 23.4352 23.2137L23.1806 22.7728C25.0058 25.3413 24.9784 27.3844 22.4298 24.0556L22.9767 23.3399C22.9898 23.1857 23.0135 23.0342 23.0601 22.8917C23.3446 22.0297 25.7207 20.3867 26.6213 19.7912C26.7513 19.7161 26.9667 19.6273 27.0339 19.713C27.8797 20.7314 31.0682 21.1587 29.7908 23.6104L29.6386 24.0627C29.801 24.2978 29.7565 24.5902 29.5064 24.9346C29.8823 25.0776 30.2687 25.2234 30.6675 25.3753C30.467 24.9356 31.5605 23.6686 32.0315 23.8456L31.0962 24.3856L33.6501 21.111C34.0692 20.9669 33.1549 21.7178 34.1624 20.5664C34.0369 21.2086 33.9967 20.6798 33.927 20.6667C33.6499 20.6178 29.9134 17.1217 30.5232 16.2184L30.672 15.768C31.083 14.7707 32.7079 12.6814 33.6328 12.1741C33.8414 12.0581 34.0912 12.0828 34.3157 12.1176C35.2629 12.5264 35.8826 13.3997 35.9359 14.4312L35.9256 14.2962C35.2466 14.906 34.6786 16.2949 34.2376 17.0784C35.4666 17.2133 37.0805 17.659 38.192 18.2217L38.8686 18.0892C40.8515 20.9001 39.5066 19.1942 38.8686 18.0892L39.3731 17.798L39.4463 17.2935C40.8321 16.7068 42.3244 16.4585 43.926 16.5383C45.1659 16.1069 46.4386 15.8788 47.749 15.8467L48.2163 16.248L48.7937 16.2166C48.8776 20.2571 48.0394 19.968 48.0656 15.6639C48.4383 12.822 49.2164 11.8568 50.6134 16.6508C50.7839 16.4457 51.1415 16.5151 51.221 16.5177C51.3214 16.5211 51.6879 16.5104 51.8625 16.8052L52.1227 17.2327L51.1672 19.4422L54.6996 17.385L55.2402 17.1984L56.495 17.4463C58.0504 17.6461 61.18 18.6864 62.1768 19.8355C62.6372 20.5252 61.0773 21.5031 60.3294 21.7704L60.309 22.2023C59.209 21.7751 57.8176 21.3228 56.6962 21.028C57.5074 21.9019 58.2664 22.8237 58.9591 23.7927L59.5342 24.7889L60.2886 25.7417L57.1771 26.6635C57.7062 25.9402 58.4223 25.7498 58.9068 24.8568L58.8525 24.7628C57.6775 23.1434 59.9421 25.504 60.0776 25.5769C61.0921 26.1023 64.095 32.619 64.0434 33.7999C64.0406 33.8104 64.0384 33.6295 64.0926 33.5848C64.5878 33.1878 66.9587 32.7523 67.6668 32.7702C68.4179 32.7854 69.6157 33.205 70.2487 33.6085C67.986 29.2969 65.1521 25.4662 61.0301 22.6993L59.6183 21.7263C59.0792 21.5931 61.3957 20.1992 61.6069 19.9262C61.7446 19.7489 61.314 19.5714 62.1063 19.7134C69.8908 24.1126 75.6175 34.3934 76.669 43.1199C77.0537 46.3112 77.0818 49.3084 76.8915 52.4584C76.6582 56.2421 75.7652 59.6377 73.8252 62.9134C72.142 65.7563 69.4453 67.7444 66.1664 68.393C64.5627 68.71 63.1114 69.0679 61.474 68.4488C61.0928 68.3044 60.4535 68.3979 60.1758 68.7716C59.0211 70.305 57.4254 71.1285 55.9235 72.2223C53.3742 74.0808 50.5768 75.0247 47.4058 74.8287C45.114 74.6852 42.8933 76.1584 39.8153 75.4999C37.1797 75.4615 34.7517 74.5433 32.5501 73.1165C27.9944 73.0933 24.4201 70.228 21.9679 66.4658L20.2401 64.1121C19.4721 63.0666 18.8467 62.0143 17.9321 61.0845C14.6622 57.7456 11.2476 52.005 11.6863 47.7567L11.6733 47.742Z" fill="#EF6A22"/>
<path d="M35.9013 14.2526L34.1873 12.3023C36.5404 10.4504 40.2528 8.28983 43.206 9.10931C45.7701 9.82454 47.877 11.5415 49.3523 13.5965C49.3872 13.9186 49.2435 14.2549 48.9267 14.6067C48.8856 15.3594 48.6652 15.8244 48.2668 15.9966L47.7444 15.9693C44.7497 12.0448 41.1474 10.409 36.981 13.8855L36.4781 13.7226L35.9013 14.2526Z" fill="#EF6A22"/>
<path d="M12.5849 41.2687C12.2672 40.8032 12.5786 40.3878 12.7555 39.9168C13.0146 39.2339 13.6539 37.9781 14.025 37.4661C14.9021 37.9153 17.6032 38.0747 18.6394 38.3298L12.2793 42.5897L12.5849 41.2687Z" fill="#EF6A22"/>
<path d="M37.567 43.0769L37.2223 43.396C32.617 43.1792 32.957 49.4186 37.5446 46.9566L37.9955 47.1141C38.2921 48.5207 38.6322 49.9644 38.9206 51.4646C38.9543 51.854 38.161 51.7964 37.8827 51.8994C36.3488 52.4605 34.4729 52.7524 32.7672 52.8928C31.8852 52.9664 31.0483 53.1874 30.126 52.9909C29.5108 51.1016 29.6111 49.1814 29.4548 47.2094C29.132 43.1245 29.679 39.1375 30.9364 35.2337C31.162 34.539 31.1519 33.567 31.7209 33.1051C32.1411 32.8092 32.6621 33.4729 32.9764 33.6247C34.0032 34.1253 35.0027 34.6016 35.9633 35.3493C36.2695 37.9814 36.8542 40.5106 37.5636 43.0789L37.567 43.0769Z" fill="white"/>
<path d="M68.0785 36.3237C69.8792 36.8175 70.9237 42.699 70.772 45.6311L70.4935 51.0454L69.513 56.6606L68.4202 60.3182L67.6425 62.2429C67.2732 63.1583 66.651 64.3131 65.8492 64.9182C65.0474 65.5234 63.849 65.0642 63.0277 64.9427C62.9539 64.2298 63.2521 63.7687 63.5668 63.2359C64.623 61.4394 65.4697 59.5727 65.8039 57.5264C66.8546 51.0707 66.4606 43.9602 64.8749 37.5955C65.6883 36.8104 66.8266 35.9798 68.0785 36.3237Z" fill="white"/>
<path d="M59.9034 62.6797L60.1739 61.3871C60.6003 60.6476 60.0558 63.2192 59.8012 62.7782C60.0082 61.3431 58.0872 60.828 58.5964 61.7099C58.0872 60.828 60.6149 61.1325 58.3418 61.2689C57.5923 60.5327 58.1417 60.1056 57.6723 59.1232C57.3446 56.6234 56.8013 54.2659 56.1035 51.8332C56.2695 49.6573 56.7654 47.6064 57.6667 45.6416C58.791 43.9169 59.6555 42.1733 61.3764 40.6197C62.1801 43.3514 62.4387 46.1088 62.4931 48.8819C62.5301 50.6473 62.5996 52.3228 62.3782 54.064C62.2555 55.037 62.2376 55.9452 62.0219 56.9187C61.6316 58.6907 61.0229 62.5711 60.382 62.8389C60.261 62.891 60.0381 62.7975 59.9034 62.6797Z" fill="white"/>
<path d="M46.9678 30.1826C47.9551 29.9681 48.5098 30.4746 49.241 30.648C50.6667 30.9849 51.9515 31.4165 53.2058 32.0879C53.8542 32.4335 54.08 32.6321 54.0157 33.4292C53.7833 36.3368 53.343 39.2 51.9052 41.9368C51.2313 41.0236 50.5823 40.2383 50.0189 39.3547C48.9986 37.757 48.3395 32.9818 46.9659 30.1792L46.9678 30.1826Z" fill="white"/>
<path d="M39.365 17.7983C38.4141 16.4362 37.4213 15.0938 36.4737 13.7297C37.7274 13.0681 38.8112 12.1046 40.2742 11.7133C43.5969 10.8171 46.2086 13.5316 48.2625 16.0037C48.2486 16.0873 48.205 16.1658 48.2082 16.2484C46.9413 16.1709 45.7504 16.3562 44.5091 16.7929C43.1682 17.2648 41.1327 16.5644 39.365 17.7983Z" fill="white"/>
<path d="M46.6361 26.4672C47.1986 24.8625 48.4752 23.8943 49.6079 22.7692C50.7691 23.441 51.8888 24.1102 52.5665 25.2301L53.6141 28.3764C53.3891 28.6486 52.905 28.4569 52.7299 28.1536C50.8383 27.2945 48.9328 26.8347 46.6342 26.4639L46.6361 26.4672Z" fill="white"/>
<path d="M23.6638 56.2552C24.7519 56.3692 25.6875 56.5579 26.7833 56.4542L29.3704 61.9207C29.7338 62.6887 30.3499 63.2708 30.5259 64.1915C28.2098 62.6664 26.4336 60.5984 24.8469 58.2966C24.4125 57.6674 23.8049 57.2848 23.6671 56.2532L23.6638 56.2552Z" fill="white"/>
<path d="M44.7301 48.6081C43.3879 47.2764 41.3888 43.1904 41.8147 40.6333C43.8034 42.5919 45.1351 45.0987 45.8538 47.8216C45.9587 48.2188 44.9833 48.862 44.7268 48.6101L44.7301 48.6081Z" fill="white"/>
<path d="M23.4108 32.1207C23.1851 33.1 23 34.0957 22.5526 34.9452C21.4457 37.0465 20.4493 39.0929 19.6516 41.3447C19.4997 41.7745 19.1177 42.0751 19.0992 42.6281C18.8345 41.9541 18.9457 41.3922 19.0856 40.7647C19.6999 38.0411 20.4683 35.4152 21.7496 32.9154C21.9796 32.467 22.6839 32.1626 23.4108 32.1207Z" fill="#FEFDFE"/>
<path d="M52.9003 63.2295C53.1092 63.6067 53.5778 64.0873 54.0861 64.0516L54.8069 65.1155L54.3087 68.0477C53.3799 68.0017 52.4819 67.809 51.6767 67.2072L52.2696 63.007C52.6443 62.9862 52.7686 63.1322 52.9055 63.2309L52.9003 63.2295Z" fill="white"/>
<path d="M73.2085 50.429C73.3683 49.0967 73.1912 47.9278 73.5096 46.624C73.6052 46.2354 73.0792 45.6013 73.7636 45.1395C74.0989 48.1682 74.0077 51.2743 73.5857 54.3847C73.2907 56.5373 72.8144 58.6301 71.44 60.4681L72.6352 55.2712L73.2085 50.429Z" fill="#FEFCFD"/>
<path d="M35.9341 14.4277L38.26 17.725C38.4065 17.9249 38.3723 18.189 38.1774 18.2749C38.0631 18.3231 37.8156 18.3949 37.652 18.3116C36.3653 17.6766 35.0977 17.5596 33.5367 17.3808C34.2177 16.1431 35.0556 15.2772 35.9321 14.4244L35.9341 14.4277Z" fill="#FFFEFF"/>
<path d="M43.9026 65.8287C44.1795 65.4999 44.2255 65.0023 44.7512 64.7965C45.2137 65.2051 45.6603 65.6628 45.9909 66.2586C45.2207 68.05 43.3654 69.2323 41.4155 68.7802L43.8974 65.8273L43.9026 65.8287Z" fill="#FFFEFF"/>
<path d="M54.0265 60.5614C53.8636 59.6865 53.2825 59.0264 52.3991 58.8742C52.1241 58.0285 52.0977 57.1282 51.9445 56.1855L51.5688 53.8334C51.4996 53.3978 52.265 52.9915 52.7246 53.0639C52.8376 55.6076 53.2708 57.8821 54.4549 60.0563C54.5363 60.2049 54.439 60.4521 54.3609 60.5016C54.2829 60.5512 54.1382 60.5547 54.0232 60.5633L54.0265 60.5614Z" fill="#FFFEFE"/>
<path d="M38.4847 22.502C38.5569 23.3892 37.863 24.0965 37.6171 24.9408C37.2131 26.3118 37.0468 26.6167 34.7437 26.7153C35.6414 25.1525 36.6737 23.5609 38.4827 22.4987L38.4847 22.502Z" fill="#FFFEFE"/>
<path d="M57.3907 34.9786C58.4085 35.5866 58.9116 36.3273 59.7248 37.2045L57.7726 39.3583L57.3907 34.9786Z" fill="#FFFDFE"/>
<path d="M43.3591 55.1245C43.7592 54.8935 44.1842 54.7059 44.5649 54.4416L45.8295 56.3471L44.9897 58.5876C44.006 57.6844 44.0457 56.1904 43.3572 55.1211L43.3591 55.1245Z" fill="#FFFEFF"/>
<path d="M43.6831 23.8699C44.1585 22.5687 45.8791 20.722 47.0201 21.2588C45.5184 22.4992 44.719 24.6096 44.0693 24.6158C43.864 24.6144 43.5826 24.1501 43.6831 23.8699Z" fill="#FEFCFD"/>
<path d="M43.4129 32.9773C43.44 32.1928 43.7335 31.5388 44.2601 30.8881C44.895 32.0416 45.2827 33.1289 45.6168 34.5005C44.7353 34.1516 44.2867 33.544 43.411 32.974L43.4129 32.9773Z" fill="#FEFDFD"/>
<path d="M45.3918 38.4617C46.4875 39.2202 47.4422 40.3579 47.2524 41.9076C46.3823 40.8855 45.8659 39.7524 45.3918 38.4617Z" fill="#FDF2F8"/>
<path d="M50.3187 71.1515C50.32 70.684 50.6536 70.1225 51.0983 70.0614C51.543 70.0002 52.0883 70.352 52.5302 70.6169C51.7754 71.0571 51.0713 71.077 50.3168 71.1481L50.3187 71.1515Z" fill="#FDF7FA"/>
<path d="M29.6345 24.056C29.9473 24.4977 30.2425 24.9628 30.6635 25.3686C30.2679 25.5303 29.4191 25.6382 29.1438 25.046C28.9934 24.7239 29.4748 24.2104 29.6345 24.056Z" fill="#FDF8FB"/>
<path d="M53.9153 45.4341C53.0635 45.0903 53.6264 43.6097 54.5803 42.9523L53.9153 45.4341Z" fill="#FBEAF2"/>
<path d="M47.244 60.7529C47.3087 61.3423 47.1873 61.8479 46.9773 62.4003C46.7205 62.2019 46.5336 61.8475 46.5731 61.5848C46.6093 61.3549 46.7365 60.9748 47.2473 60.751L47.244 60.7529Z" fill="#F6D8E9"/>
<path d="M73.5027 42.801C73.8761 43.5632 73.8755 44.2703 73.6917 45.0298C73.3234 44.2379 73.3496 43.5828 73.5027 42.801Z" fill="#EF6A22"/>
<path d="M26.8448 19.7301C28.8259 18.6244 29.5169 17.4224 30.9817 15.9168L34.1844 19.4271C31.5611 20.7005 31.2233 21.4117 29.6272 23.7544L26.8448 19.7301Z" fill="#EF6A22"/>
</g>
<defs>
<filter id="filter0_f_927_1192" x="5.3046" y="2.93063" width="77.7017" height="78.7396" filterUnits="userSpaceOnUse" color-interpolation-filters="sRGB">
<feFlood flood-opacity="0" result="BackgroundImageFix"/>
<feBlend mode="normal" in="SourceGraphic" in2="BackgroundImageFix" result="shape"/>
<feGaussianBlur stdDeviation="3" result="effect1_foregroundBlur_927_1192"/>
</filter>
</defs>
</svg>
