<svg preserveAspectRatio="none" width="100%" height="100%" overflow="visible" style="display: block;" viewBox="0 0 163 154" fill="none" xmlns="http://www.w3.org/2000/svg">
<path id="Vector 22" d="M101.642 0.864848C96.129 -1.21078 89.5826 10.9547 86.9985 17.2969C84.9886 12.1078 81.8302 2.7044e-05 76.662 0C69.771 -3.60583e-05 67.1869 11.5313 64.6028 18.1617C60.0088 14.1258 50.8209 4.32422 44.7913 6.05391C37.2913 8.20539 40.4844 22.1977 41.3458 30.2695C37.0389 26.5219 27.047 19.3725 21.5343 20.7563C16.0215 22.14 20.3858 36.9 23.257 44.1071C17.8017 43.2422 6.37414 43.0692 4.30685 49.2961C2.23956 55.523 9.7622 63.4219 13.7819 66.593C9.18795 68.611 0 74.2036 0 80.4305C0 86.6574 10.3364 92.8266 15.5046 95.1329C11.772 98.0157 3.21678 102.978 5.16818 109.835C6.86991 115.815 18.3768 114.763 24.7457 114.181L24.9798 114.159C22.3957 119.925 15.5047 130.591 20.6729 134.916C24.9798 138.519 35.6034 131.456 41.3459 127.997C40.4845 133.186 39.7954 144.429 43.93 147.888C48.0646 151.348 57.1377 141.258 61.1574 135.781C62.8801 141.258 64.6028 153.077 70.6325 153.942C77.5233 154.931 81.256 142.988 84.4144 136.645C89.0084 141.834 95.2947 153.117 102.503 152.213C109.394 151.348 110.256 138.952 111.978 132.321C116.572 136.645 124.899 145.726 130.928 142.699C136.097 140.105 133.8 127.42 132.651 121.078C138.394 122.808 150.568 124.883 153.324 119.348C156.08 113.813 148.156 103.781 143.849 99.4571C149.017 99.1688 160.997 99.7363 162.799 93.4032C164.522 87.3493 154.76 80.7188 149.017 76.9711C152.463 74.9532 159.526 69.5335 160.215 63.9985C160.904 58.4635 148.443 55.35 142.126 54.4852C144.71 49.8727 152.463 39.7828 149.879 34.5938C146.864 28.5399 135.522 30.2695 128.344 31.1344C129.206 25.3688 132.651 12.9727 126.622 10.3781C120.592 7.7836 112.553 16.1438 107.671 20.7563C107.959 14.9906 107.155 2.94047 101.642 0.864848Z" fill="var(--fill-0, #2F9DD4)"/>
</svg>
