
<svg width="229" height="237" viewBox="0 0 229 237" fill="none" xmlns="http://www.w3.org/2000/svg">
<g filter="url(#filter0_f_927_1256)">
<path d="M98.2203 18.2683C68.8879 21.2071 73.1248 64.3079 77.6876 87.8175C66.6064 78.0219 40.142 64.8958 22.9337 90.7563C5.72536 116.617 38.5777 134.837 57.1548 140.714C48.3551 151.489 33.4933 176.566 44.4441 190.672C55.3949 204.778 82.9022 196.549 95.287 190.672C98.2203 199.815 110.344 218.1 135.375 218.1C160.405 218.1 161.448 182.836 158.841 165.203C169.596 174.346 194.235 186.362 206.75 161.285C219.266 136.208 193.714 111.654 179.373 102.511C190.78 91.0828 210.075 65.0917 195.995 52.5532C181.916 40.0148 147.76 64.9611 132.441 79.0015C132.441 64.308 132.286 14.8554 98.2203 18.2683Z" fill="#EE91A9"/>
<path d="M98.2203 18.2683C68.8879 21.2071 73.1248 64.3079 77.6876 87.8175C66.6064 78.0219 40.142 64.8958 22.9337 90.7563C5.72536 116.617 38.5777 134.837 57.1548 140.714C48.3551 151.489 33.4933 176.566 44.4441 190.672C55.3949 204.778 82.9022 196.549 95.287 190.672C98.2203 199.815 110.344 218.1 135.375 218.1C160.405 218.1 161.448 182.836 158.841 165.203C169.596 174.346 194.235 186.362 206.75 161.285C219.266 136.208 193.714 111.654 179.373 102.511C190.78 91.0828 210.075 65.0917 195.995 52.5532C181.916 40.0148 147.76 64.9611 132.441 79.0015C132.441 64.308 132.286 14.8554 98.2203 18.2683Z" stroke="black"/>
</g>
<defs>
<filter id="filter0_f_927_1256" x="9.72748e-05" y="-2.47955e-05" width="228.2" height="236.2" filterUnits="userSpaceOnUse" color-interpolation-filters="sRGB">
<feFlood flood-opacity="0" result="BackgroundImageFix"/>
<feBlend mode="normal" in="SourceGraphic" in2="BackgroundImageFix" result="shape"/>
<feGaussianBlur stdDeviation="8.8" result="effect1_foregroundBlur_927_1256"/>
</filter>
</defs>
</svg>
