<svg width="464" height="454" viewBox="0 0 464 454" fill="none" xmlns="http://www.w3.org/2000/svg">
<path d="M348.777 80.2276L352.755 85.0043C342.817 87.1848 318.067 105.465 305.304 119.994L303.655 128.877L298.352 122.254C294.463 117.321 290.282 112.959 285.799 109.117C280.23 111.145 275.706 113.94 272.243 117.528C295.944 132.541 315.249 155.57 331.816 177.495C326.456 159.383 316.952 143.08 303.321 128.519L303.593 125.257C303.156 124.468 298.946 118.916 299.383 118.408C310.49 105.566 332.088 94.2837 345.948 85.167C347.891 83.881 342.176 75.3036 343.637 74.9947L355.573 83.9939C357.695 86.3279 365.023 94.7943 367.559 101.148L368.791 103.725C394.87 138.81 364.812 131.887 359.748 145.514L372.173 135.619C384.769 128.109 380.542 130.834 377.193 143.333L376.584 144.653C386.089 148.713 396.584 148.668 379.388 154.76C368.932 157.309 351.121 158.952 374.483 153.446C379.56 151.008 370.958 95.6375 388.947 149.479C390.289 157.18 392.884 168.614 392.42 176.827C399.038 189.902 402.074 221.009 402.112 221.043C402.758 221.656 399.986 229.032 401.243 229.369L404.102 230.135C386.045 227.08 377.761 218.571 401.915 221.777L402.609 226.966C403.189 227.654 403.714 228.374 404.108 229.151C406.482 233.863 403.469 250.38 402.215 256.528C401.989 257.371 401.469 258.621 400.841 258.546C393.179 257.836 378.319 269.184 373.494 253.858L372.26 251.374C370.626 251.075 369.608 249.691 369.22 247.248C367.088 248.205 364.901 249.193 362.637 250.208C365.269 251.191 365.981 260.892 363.318 262.101L364.943 256.037L367.904 279.991C366.775 282.305 367.446 275.462 368.037 284.334C365.914 281.179 368.252 283.187 368.592 282.954C369.932 282.016 399.656 281.029 400.862 287.247L402.102 289.71C404.511 295.497 406.42 310.761 404.704 316.647C404.323 317.981 403.195 318.907 402.129 319.686C396.557 321.899 390.421 320.857 385.963 316.837L386.56 317.349C386.844 312.052 383.471 304.01 382.063 298.978C376.458 303.474 367.994 308.275 361.113 310.531L358.877 313.856C339.176 310.453 351.714 311.936 358.877 313.856L358 317.126L359.773 319.5C356.489 327.607 351.376 334.759 344.466 341.014C341.144 347.882 336.85 354.051 331.597 359.568L328.027 359.839L325.784 362.341C308.833 346.08 313.466 343.824 331.047 361.62C341.195 374.831 341.964 381.996 316.521 368.035C316.663 369.578 314.908 370.763 314.57 371.079C314.144 371.477 312.682 373.028 310.753 372.534L307.926 371.846L302.773 358.839L296.71 381.81L295.255 384.799L289.08 388.937C281.867 394.508 264.729 403.095 255.911 402.469C251.184 401.526 253.576 391.097 255.551 386.924L253.86 385.066C260.136 382.301 267.713 378.441 273.533 375.044C266.608 374.787 259.7 374.117 252.871 372.982L246.414 371.252L239.398 370.436L248.397 353.86C249.194 359.007 247.034 362.733 248.713 368.394L249.322 368.557C260.807 370.384 241.798 369.989 240.942 370.246C234.614 372.256 195.491 357.816 190.85 352.75C190.818 352.696 191.571 353.43 191.532 353.836C191.128 357.503 183.174 369.037 180.191 371.873C177.041 374.897 170.394 378.096 166.135 379.039C193.153 387.459 220.542 391.556 248.854 385.987L258.654 384.183C261.417 382.515 257.626 397.764 257.88 399.754C258.043 401.048 260.542 400.008 256.702 402.681C206.631 416.593 140.845 397.877 100.66 366.335C85.9638 354.801 73.5307 342.599 61.3674 328.872C46.7764 312.363 36.4911 294.738 31.0019 273.303C26.2356 254.702 29.1479 235.449 39.9578 219.308C45.2458 211.414 49.7392 203.98 59.013 199.794C61.1729 198.821 63.4159 195.809 63.0214 193.133C61.4653 182.085 64.6388 172.143 66.316 161.476C69.1549 143.361 76.772 127.985 90.6091 115.759C100.618 106.93 103.689 91.7493 119.046 81.8057C130.035 71.1321 143.787 64.9276 158.698 61.7434C177.516 43.1159 203.981 40.2022 229.52 45.5862L246.294 48.1584C253.747 49.2985 260.642 51.0533 268.222 51.1157C295.382 51.399 333.007 60.9579 348.663 80.2202L348.777 80.2276Z" fill="#EF6A22"/>
<path d="M386.84 317.427L401.899 318.399C399.839 335.68 393.461 359.816 377.957 368.585C364.48 376.183 348.765 377.786 334.256 375.403C332.789 374.223 331.997 372.251 331.854 369.502C328.93 366.241 327.924 363.424 328.854 361.079L331.113 359.044C359.549 362.865 381.076 354.783 383.911 323.373L386.647 321.976L386.84 317.427Z" fill="#EF6A22"/>
<path d="M371.634 110.578C374.852 111.185 375.28 114.172 376.488 116.835C378.23 120.706 380.763 128.494 381.343 132.124C375.892 133.882 364.136 144.328 358.83 147.538L367.46 103.893L371.634 110.578Z" fill="#EF6A22"/>
<path d="M261.534 205.815L261.639 203.087C281.457 185.052 254.417 160.807 245.681 189.779L243.181 190.985C236.182 186.423 228.851 181.887 221.5 176.907C219.761 175.445 223.258 172.422 223.979 170.855C227.976 162.245 234.486 153.336 240.92 145.749C244.242 141.822 246.773 137.474 251.37 134.491C261.663 139.727 269.143 148.031 277.889 155.493C296.004 170.954 310.141 189.588 321.017 210.799C322.945 214.581 326.981 218.534 326.541 222.77C326.03 225.714 321.161 225.127 319.245 225.795C312.968 227.957 306.903 230.108 299.883 230.982C287.807 221.424 275.01 213.432 261.54 205.793L261.534 205.815Z" fill="white"/>
<path d="M163.895 358.961C154.465 364.332 126.001 344.453 114.574 331.78L93.468 308.384L74.421 281.278L63.8801 261.755L59.1668 250.649C56.9222 245.37 54.7333 238.067 55.5415 232.285C56.3496 226.503 63.1622 223.464 67.0363 220.588C70.2697 223.215 70.939 226.336 71.8354 229.818C74.8779 241.542 79.0695 252.693 86.1059 262.477C108.319 293.326 139.16 320.928 171.834 340.568C171.718 347.138 170.453 355.229 163.895 358.961Z" fill="white"/>
<path d="M89.1761 217.05L93.3764 223.474C94.6633 228.265 86.3325 215.459 89.1911 216.225C94.2382 222.973 104.25 217.196 98.5328 215.664C104.25 217.196 92.6104 226.332 101.391 216.43C107.497 216.375 106.995 220.388 112.961 222.496C124.581 231.423 136.503 238.879 149.368 246.009C157.629 255.633 164.019 266.1 168.39 277.879C170.857 289.587 174.47 300.306 173.782 313.763C159.253 305.84 146.858 295.571 135.238 284.397C127.831 277.294 120.659 270.694 114.413 262.628C110.918 258.125 107.26 254.319 104.146 249.432C98.4672 240.545 85.0213 222.097 86.5547 218.362C86.838 217.651 88.1385 217.119 89.1761 217.05Z" fill="white"/>
<path d="M275.891 297.441C272.715 302.38 268.354 302.578 264.637 304.871C257.393 309.345 250.339 312.851 242.425 315.247C238.339 316.491 236.596 316.603 233.584 313.063C222.59 300.158 212.632 286.582 207.294 269.426C213.816 270.409 219.711 270.97 225.658 272.285C236.417 274.658 258.75 291.574 275.913 297.447L275.891 297.441Z" fill="white"/>
<path d="M358.033 317.09C367.539 318.781 377.136 320.217 386.636 321.929C384.203 329.8 383.709 338.214 379.304 345.834C369.332 363.173 347.443 362.75 328.842 361.032C328.556 360.631 328.413 360.129 328.06 359.803C333.585 354.914 337.718 349.259 341.024 342.363C344.595 334.913 355.839 329.426 358.033 317.09Z" fill="white"/>
<path d="M292.523 311.347C296.807 320.253 295.539 329.479 295.508 338.758C287.975 340.769 280.623 342.621 273.236 340.803L256 332.178C255.806 330.134 258.583 328.933 260.55 329.46C271.854 325.217 281.575 319.275 292.545 311.353L292.523 311.347Z" fill="white"/>
<path d="M264.513 94.5186C259.572 98.5217 254.952 101.591 250.875 106.521L217.776 94.6875C213.127 93.0248 208.203 93.1644 203.696 90.104C219.482 86.8531 235.28 88.0523 251.261 90.991C255.632 91.7917 259.701 90.8671 264.507 94.5403L264.513 94.5186Z" fill="white"/>
<path d="M209.364 212.521C220.353 212.478 245.361 221.055 254.119 233.314C237.897 233.438 222.122 228.609 207.978 220.372C205.914 219.171 207.28 212.519 209.369 212.5L209.364 212.521Z" fill="white"/>
<path d="M364.739 192.663C361.643 187.71 358.311 182.857 356.659 177.528C352.572 164.343 348.257 151.838 342.281 139.306C341.138 136.915 341.473 134.11 339.277 131.761C343.134 133.443 344.987 136.209 346.991 139.363C355.659 153.081 363.293 167.031 368.301 182.57C369.198 185.358 367.555 189.503 364.739 192.663Z" fill="#FEFDFE"/>
<path d="M115.697 186.009C113.288 185.318 109.388 185.268 107.445 187.504L100.111 186.094L90.1079 171.996C94.114 168.368 98.5963 165.47 104.379 164.634L119.204 184.332C117.749 185.957 116.638 185.868 115.67 186.025L115.697 186.009Z" fill="white"/>
<path d="M84.8435 322.075C89.6622 328.207 95.1938 332.283 99.2438 338.95C100.448 340.94 105.215 341.384 104.301 346.095C90.4754 335.025 78.0852 321.885 67.0368 307.368C59.4027 297.309 52.7591 286.751 50.854 273.549L67.2995 299.819L84.8435 322.075Z" fill="#FEFCFD"/>
<path d="M385.984 316.843L362.875 312.851C361.451 312.632 360.506 311.405 360.954 310.252C361.226 309.583 361.948 308.272 362.963 307.941C370.86 305.263 376.551 300.535 383.701 294.854C385.988 302.739 386.104 309.741 386.006 316.849L385.984 316.843Z" fill="#FFFEFF"/>
<path d="M141.994 138.349C142.207 140.838 144.063 143.073 142.748 146.078C139.168 146.3 135.452 146.254 131.645 145.165C127.448 134.637 130.214 122.154 140.085 115.998L142.021 138.333L141.994 138.349Z" fill="#FFFEFF"/>
<path d="M122.034 201.603C126.298 204.53 131.399 204.854 135.655 201.849C140.261 204.195 144.07 207.786 148.574 211.031L159.784 219.153C161.859 220.658 160.383 225.474 158.196 227.065C147.278 217.076 136.151 209.509 122.349 205.44C121.404 205.163 120.787 203.748 120.905 203.223C121.022 202.699 121.602 202.09 122.039 201.582L122.034 201.603Z" fill="#FFFEFE"/>
<path d="M342.319 294.143C338.376 290.794 338.321 285.035 335.862 280.555C331.887 273.26 331.318 271.324 340.378 261.454C343.111 271.566 345.409 282.349 342.34 294.149L342.319 294.143Z" fill="#FFFEFE"/>
<path d="M213.347 320.565C206.665 322.249 201.554 321.273 194.607 321.009L193.778 304.135L213.347 320.565Z" fill="#FFFDFE"/>
<path d="M188.219 180.106C187.524 182.699 186.548 185.217 186.07 187.868L173.041 185.234L167.285 172.574C175.04 172.244 181.017 178.547 188.24 180.112L188.219 180.106Z" fill="#FFFEFF"/>
<path d="M315.334 309.885C318.727 317.186 319.246 331.846 312.35 334.33C313.425 323.061 308.036 311.102 310.681 308.406C311.531 307.569 314.595 308.32 315.334 309.885Z" fill="#FEFCFD"/>
<path d="M279.016 271.345C282.129 274.68 283.61 278.574 284.121 283.413C276.771 281.281 270.709 278.406 263.699 274.142C268.755 271.954 273.096 272.607 279.038 271.351L279.016 271.345Z" fill="#FEFDFD"/>
<path d="M248.344 256.939C240.724 258.325 232.125 257.572 226.536 250.424C234.313 251.048 241.091 253.582 248.344 256.939Z" fill="#FDF2F8"/>
<path d="M93.7512 142.842C95.6669 144.768 96.6035 148.447 95.0274 150.526C93.4513 152.605 89.7641 153.4 86.8596 154.127C88.1523 149.216 90.9645 146.241 93.7728 142.848L93.7512 142.842Z" fill="#FDF7FA"/>
<path d="M372.304 251.385C369.204 250.855 366.079 250.157 362.681 250.219C363.642 247.929 366.687 243.997 370.252 245.3C372.194 246.005 372.326 250.094 372.304 251.385Z" fill="#FDF8FB"/>
<path d="M184.66 263.314C189.573 261.226 193.344 269.625 192.126 276.247L184.66 263.314Z" fill="#FBEAF2"/>
<path d="M149.122 172.94C146.434 170.784 144.855 168.207 143.448 165.074C145.318 164.834 147.543 165.522 148.461 166.764C149.256 167.858 150.296 169.943 149.116 172.962L149.122 172.94Z" fill="#F6D8E9"/>
<path d="M114.982 354.634C110.315 353.036 107.412 350.128 105.046 346.251C109.814 347.992 112.398 350.792 114.982 354.634Z" fill="#EF6A22"/>
<path d="M401.546 257.699C397.949 270.385 400.049 278.164 400.216 290.372L372.628 289.107C378.175 273.093 376.641 268.782 373.573 252.595L401.546 257.699Z" fill="#EF6A22"/>
</svg>
