<svg width="429" height="446" viewBox="0 0 429 446" fill="none" xmlns="http://www.w3.org/2000/svg">
<path d="M179.019 0.375359C113.479 6.92879 122.946 103.044 133.141 155.47C108.381 133.626 49.25 104.355 10.8001 162.024C-27.6498 219.693 45.7545 260.323 87.2629 273.43C67.601 297.459 34.3943 353.38 58.8624 384.836C83.3306 416.292 144.792 397.942 172.465 384.836C179.019 405.224 206.108 446 262.035 446C317.963 446 320.293 367.36 314.467 328.041C338.498 348.429 393.552 375.224 421.515 319.303C449.479 263.381 392.387 208.625 360.345 188.237C385.833 162.752 428.943 104.791 397.484 76.8307C366.025 48.87 289.708 104.5 255.481 135.81C255.481 103.044 255.133 -7.23547 179.019 0.375359Z" fill="#EE91A9"/>
</svg>
