<svg width="514" height="509" viewBox="0 0 514 509" fill="none" xmlns="http://www.w3.org/2000/svg">
<path d="M105.689 365.389L103.083 359.746C113.247 360.212 141.884 348.96 157.973 338.229L161.865 330.076L165.273 337.845C167.753 343.617 170.662 348.913 173.998 353.784C179.902 353.266 184.995 351.738 189.269 349.168C170.262 328.533 157.575 301.292 147.246 275.826C147.737 294.708 152.697 312.916 162.095 330.509L160.988 333.589C161.206 334.464 163.836 340.916 163.282 341.294C149.229 350.824 125.448 356.132 109.7 361.35C107.49 362.09 110.79 371.854 109.3 371.774L100.099 359.992C98.6541 357.189 93.7663 347.114 92.9613 340.32L92.4383 337.513C76.3291 296.873 103.571 311.34 111.99 299.488L97.427 305.83C83.3159 309.824 88.1047 308.286 94.5746 297.079L95.5035 295.963C87.3738 289.581 77.2246 286.907 95.4115 285.473C106.171 285.718 123.8 288.741 99.8094 288.012C94.2746 289.053 88.252 344.764 84.8109 288.101C85.5087 280.315 85.9607 268.599 88.5345 260.786C85.5266 246.443 90.6447 215.61 90.6172 215.568C90.1516 214.809 94.7386 208.401 93.6114 207.75L91.0484 206.271C107.699 213.895 113.498 224.258 90.9975 214.91L91.6699 209.718C91.2878 208.904 90.9669 208.072 90.7875 207.22C89.7145 202.054 96.8994 186.88 99.702 181.265C100.138 180.509 100.964 179.437 101.552 179.672C108.768 182.34 126.059 175.225 126.753 191.278L127.302 193.997C128.803 194.708 129.428 196.309 129.17 198.769C131.478 198.397 133.846 198.008 136.296 197.613C134.008 195.983 135.83 186.428 138.716 185.95L135.577 191.386L138.916 167.482C140.606 165.539 138.187 171.976 139.912 163.252C141.146 166.85 139.407 164.305 139.018 164.442C137.481 165.001 108.515 158.262 108.959 151.943L108.399 149.244C107.57 143.03 109.677 127.792 112.858 122.55C113.571 121.36 114.9 120.759 116.131 120.281C122.086 119.586 127.744 122.181 131.009 127.218L130.565 126.568C128.92 131.611 130.097 140.253 130.154 145.478C136.732 142.585 146.15 140.139 153.38 139.741L156.401 137.108C174.55 145.494 162.823 140.816 156.401 137.108L158.094 134.176L156.996 131.424C162.266 124.444 169.056 118.858 177.349 114.605C182.337 108.83 188.08 103.983 194.582 100.014L198.1 100.676L200.915 98.8398C213.079 118.934 208.02 119.914 195.644 98.1738C189.262 82.7868 190.373 75.6672 211.336 95.7375C211.598 94.2097 213.6 93.5197 214.008 93.302C214.523 93.0272 216.337 91.9083 218.072 92.8844L220.624 94.2804L222.236 108.178L234.037 87.5585L236.216 85.0482L243.252 82.6493C251.661 79.135 270.437 75.2768 278.793 78.1638C283.115 80.2974 278.105 89.7526 275.118 93.2716L276.27 95.5046C269.492 96.551 261.174 98.3179 254.673 100.093C261.296 102.134 267.795 104.569 274.097 107.432L279.887 110.775L286.453 113.379L273.471 127.061C274.032 121.883 277.083 118.843 276.926 112.94L276.38 112.625C265.76 107.888 284.018 113.189 284.912 113.163C291.545 112.859 325.597 136.933 328.769 143.027C328.785 143.088 328.248 142.184 328.392 141.802C329.731 138.364 340.398 129.282 344.014 127.315C347.839 125.209 355.088 123.84 359.446 124.031C335.528 108.905 310.132 97.8589 281.344 95.9104L271.41 95.1159C268.31 96.0122 275.919 82.2647 276.188 80.2764C276.366 78.9841 273.683 79.3418 278.084 77.7542C330.05 77.2752 388.75 112.38 419.402 153.248C430.612 168.193 439.463 183.197 447.659 199.605C457.48 219.327 462.853 239.014 462.608 261.139C462.397 280.34 454.601 298.183 439.982 310.976C432.831 317.232 426.567 323.251 416.526 324.893C414.188 325.274 411.241 327.603 410.93 330.29C409.574 341.364 403.935 350.146 399.554 360.016C392.123 376.779 380.786 389.659 364.256 397.888C352.304 403.825 345.407 417.694 328.001 423.324C314.624 430.79 299.734 433.223 284.507 432.44C261.509 445.562 235.191 441.527 211.916 429.716L196.38 422.89C189.476 419.86 183.27 416.381 175.965 414.358C149.803 407.055 115.934 388.084 105.797 365.426L105.689 365.389Z" fill="#EF6A22"/>
<path d="M130.315 126.42L116.021 121.585C122.483 105.425 134.89 83.7625 152.136 79.3053C167.12 75.454 182.714 77.9736 196.112 84.0296C197.224 85.5496 197.478 87.6596 196.905 90.3514C198.886 94.2588 199.128 97.24 197.623 99.2645L194.914 100.645C168.436 89.5947 145.551 91.8292 134.683 121.435L131.678 122.077L130.315 126.42Z" fill="#EF6A22"/>
<path d="M91.4662 330.157C88.5146 328.737 88.8748 325.742 88.3965 322.857C87.7159 318.667 87.2847 310.489 87.6645 306.833C93.3846 306.545 107.443 299.498 113.4 297.771L93.7673 337.694L91.4662 330.157Z" fill="#EF6A22"/>
<path d="M222.464 266.662L221.656 269.269C197.846 281.561 217.689 311.978 233.625 286.254L236.353 285.736C241.933 291.955 247.84 298.233 253.651 304.946C254.953 306.808 250.793 308.823 249.691 310.15C243.601 317.432 235.007 324.353 226.829 330.016C222.604 332.95 219.034 336.494 213.821 338.185C205.234 330.464 200.159 320.507 193.641 311.036C180.146 291.413 171.313 269.755 166.297 246.452C165.414 242.3 162.538 237.437 164.06 233.459C165.315 230.748 169.866 232.575 171.89 232.426C178.512 231.961 184.927 231.454 191.935 232.426C201.126 244.784 211.418 255.816 222.452 266.681L222.464 266.662Z" fill="white"/>
<path d="M356.413 144.004C366.911 141.257 389.261 167.825 397.018 183.024L411.35 211.086L422.732 242.198L427.861 263.784L429.54 275.731C430.341 281.412 430.565 289.033 428.288 294.408C426.011 299.784 418.644 300.956 414.158 302.731C411.714 299.357 411.876 296.169 411.911 292.573C412.007 280.462 410.844 268.605 406.579 257.335C393.108 221.788 370.461 187.143 343.984 159.716C345.797 153.4 349.113 145.911 356.413 144.004Z" fill="white"/>
<path d="M391.856 300.419L389.462 293.127C389.459 288.165 394.191 302.692 391.628 301.212C388.5 293.387 377.334 296.377 382.46 299.336C377.334 296.377 390.942 290.564 379.897 297.856C373.985 296.329 375.509 292.582 370.291 289.002C361.378 277.372 351.792 267.084 341.21 256.868C335.723 245.433 332.259 233.669 331.086 221.161C331.733 209.212 331.017 197.924 335.164 185.104C347.148 196.517 356.463 209.644 364.795 223.445C370.111 232.223 375.33 240.454 379.276 249.861C381.486 255.116 384.035 259.739 385.778 265.266C388.963 275.319 397.176 296.619 394.728 299.83C394.27 300.444 392.877 300.621 391.856 300.419Z" fill="white"/>
<path d="M232.31 174.441C236.657 170.493 240.92 171.43 245.104 170.178C253.259 167.731 260.98 166.17 269.245 165.904C273.513 165.759 275.227 166.103 277.22 170.302C284.499 185.612 290.603 201.303 291.32 219.256C285.274 216.618 279.725 214.552 274.321 211.742C264.543 206.664 247.349 184.545 232.291 174.43L232.31 174.441Z" fill="white"/>
<path d="M158.053 134.202C149.309 130.109 140.41 126.237 131.677 122.125C136.064 115.152 138.719 107.153 144.946 100.932C159.066 86.7654 180.1 92.8388 197.622 99.3127C197.795 99.7741 197.803 100.296 198.06 100.702C191.458 103.994 186.002 108.387 181.023 114.192C175.646 120.464 163.365 122.854 158.053 134.202Z" fill="white"/>
<path d="M219.844 156.705C218.011 146.993 221.624 138.41 224.055 129.455C231.852 129.462 239.433 129.577 246.098 133.244L260.515 146.036C260.173 148.06 257.179 148.502 255.416 147.484C243.399 148.657 232.471 151.88 219.824 156.694L219.844 156.705Z" fill="white"/>
<path d="M190.781 373.394C196.589 370.806 201.847 369.037 207.061 365.331L235.968 385.327C240.029 388.137 244.822 389.277 248.383 393.399C232.293 392.454 217.344 387.206 202.668 380.232C198.653 378.327 194.483 378.167 190.792 373.375L190.781 373.394Z" fill="white"/>
<path d="M274.592 273.686C263.966 270.883 242.03 256.126 236.743 242.018C252.444 246.097 266.432 254.845 277.962 266.462C279.644 268.156 276.604 274.228 274.581 273.705L274.592 273.686Z" fill="white"/>
<path d="M119.371 252.654C121.08 258.239 123.042 263.789 123.259 269.364C123.794 283.158 124.726 296.353 127.254 310.005C127.739 312.61 126.69 315.233 128.203 318.07C124.913 315.447 123.839 312.296 122.72 308.731C117.897 293.237 114.134 277.787 113.319 261.481C113.174 258.556 115.834 254.977 119.371 252.654Z" fill="#FEFDFE"/>
<path d="M358.205 323.537C360.353 324.829 364.108 325.886 366.563 324.229L373.283 327.489L379.296 343.696C374.487 346.164 369.407 347.803 363.606 347.114L354.384 324.25C356.21 323.057 357.26 323.431 358.236 323.529L358.205 323.537Z" fill="white"/>
<path d="M423.224 200.093C420.157 192.924 415.868 187.555 413.682 180.067C413.034 177.833 408.544 176.17 410.647 171.857C421.136 186.127 429.703 202.026 436.618 218.908C441.388 230.6 445.073 242.518 443.496 255.763L434.41 226.132L423.224 200.093Z" fill="#FEFCFD"/>
<path d="M130.99 127.207L152.279 137.044C153.597 137.624 154.193 139.053 153.462 140.051C153.026 140.627 151.989 141.707 150.923 141.763C142.602 142.306 135.881 145.401 127.505 149.037C127.336 140.828 129.037 134.035 130.971 127.195L130.99 127.207Z" fill="#FFFEFF"/>
<path d="M320.47 362.768C320.908 360.308 319.693 357.67 321.741 355.106C325.257 355.819 328.834 356.825 332.23 358.863C333.559 370.118 327.656 381.46 316.528 384.851L320.439 362.776L320.47 362.768Z" fill="#FFFEFF"/>
<path d="M356.121 306.835C352.758 302.905 347.915 301.271 343.026 303.072C339.185 299.614 336.435 295.159 332.925 290.86L324.199 280.113C322.584 278.122 325.256 273.852 327.78 272.881C335.741 285.356 344.531 295.545 356.809 303.047C357.65 303.559 357.879 305.086 357.63 305.562C357.381 306.038 356.663 306.476 356.109 306.854L356.121 306.835Z" fill="#FFFEFE"/>
<path d="M167.293 160.434C170.234 164.69 168.797 170.266 170.013 175.23C171.964 183.305 172.013 185.323 160.707 192.512C160.684 182.037 161.255 171.026 167.273 160.423L167.293 160.434Z" fill="#FFFEFE"/>
<path d="M298.708 168.293C305.598 168.396 310.283 170.662 316.925 172.714L313.358 189.228L298.708 168.293Z" fill="#FFFDFE"/>
<path d="M286.627 310.47C287.969 308.145 289.563 305.965 290.711 303.529L302.614 309.445L304.898 323.163C297.322 321.475 293.18 313.84 286.607 310.458L286.627 310.47Z" fill="#FFFEFF"/>
<path d="M197.432 152.213C196.044 144.282 199.337 129.987 206.641 129.373C202.687 139.98 204.796 152.926 201.544 154.846C200.506 155.435 197.741 153.916 197.432 152.213Z" fill="#FEFCFD"/>
<path d="M222.537 198.839C220.394 194.812 219.971 190.667 220.731 185.862C227.278 189.823 232.389 194.169 238.057 200.102C232.606 200.907 228.582 199.152 222.518 198.828L222.537 198.839Z" fill="#FEFDFD"/>
<path d="M248.436 220.693C256.155 221.327 264.266 224.279 267.814 232.631C260.464 230.015 254.573 225.812 248.436 220.693Z" fill="#FDF2F8"/>
<path d="M368.231 370.914C366.879 368.558 366.926 364.762 368.987 363.162C371.047 361.562 374.815 361.748 377.809 361.797C375.289 366.206 371.802 368.352 368.212 370.903L368.231 370.914Z" fill="#FDF7FA"/>
<path d="M127.262 193.975C130.12 195.289 132.958 196.772 136.256 197.592C134.735 199.555 130.776 202.565 127.669 200.384C125.977 199.2 126.907 195.216 127.262 193.975Z" fill="#FDF8FB"/>
<path d="M311.601 231.018C306.314 231.763 304.845 222.674 307.736 216.594L311.601 231.018Z" fill="#FBEAF2"/>
<path d="M322.536 327.51C324.575 330.289 325.433 333.187 325.981 336.577C324.112 336.325 322.142 335.084 321.577 333.647C321.091 332.385 320.627 330.102 322.548 327.491L322.536 327.51Z" fill="#F6D8E9"/>
<path d="M402.539 160.844C406.634 163.595 408.685 167.156 409.967 171.512C405.813 168.597 404.041 165.223 402.539 160.844Z" fill="#EF6A22"/>
<path d="M100.651 180.307C107.409 168.985 107.394 160.927 110.392 149.092L136.713 157.454C127.21 171.486 127.576 176.048 126.35 192.478L100.651 180.307Z" fill="#EF6A22"/>
</svg>
