<svg preserveAspectRatio="none" width="100%" height="100%" overflow="visible" style="display: block;" viewBox="0 0 182.8 173.8" fill="none" xmlns="http://www.w3.org/2000/svg">
<g id="Vector 26" filter="url(#filter0_f_0_6)">
<path d="M111.542 10.7648C106.029 8.68922 99.4826 20.8547 96.8985 27.1969C94.8886 22.0078 91.7302 9.90003 86.562 9.9C79.671 9.89996 77.0869 21.4313 74.5028 28.0617C69.9088 24.0258 60.7209 14.2242 54.6913 15.9539C47.1913 18.1054 50.3844 32.0977 51.2458 40.1695C46.9389 36.4219 36.947 29.2725 31.4343 30.6563C25.9215 32.04 30.2858 46.8 33.157 54.0071C27.7017 53.1422 16.2741 52.9692 14.2069 59.1961C12.1396 65.423 19.6622 73.3219 23.6819 76.493C19.088 78.511 9.9 84.1036 9.9 90.3305C9.9 96.5574 20.2364 102.727 25.4046 105.033C21.672 107.916 13.1168 112.878 15.0682 119.735C16.7699 125.715 28.2768 124.663 34.6457 124.081L34.8798 124.059C32.2957 129.825 25.4047 140.491 30.5729 144.816C34.8798 148.419 45.5034 141.356 51.2459 137.897C50.3845 143.086 49.6954 154.329 53.83 157.788C57.9646 161.248 67.0377 151.158 71.0574 145.681C72.7801 151.158 74.5028 162.977 80.5325 163.842C87.4233 164.831 91.156 152.888 94.3144 146.545C98.9084 151.734 105.195 163.017 112.403 162.113C119.294 161.248 120.156 148.852 121.878 142.221C126.472 146.545 134.799 155.626 140.828 152.599C145.997 150.005 143.7 137.32 142.551 130.978C148.294 132.708 160.468 134.783 163.224 129.248C165.98 123.713 158.056 113.681 153.749 109.357C158.917 109.069 170.897 109.636 172.699 103.303C174.422 97.2493 164.66 90.6188 158.917 86.8711C162.363 84.8532 169.426 79.4335 170.115 73.8985C170.804 68.3635 158.343 65.25 152.026 64.3852C154.61 59.7727 162.363 49.6828 159.779 44.4938C156.764 38.4399 145.422 40.1695 138.244 41.0344C139.106 35.2688 142.551 22.8727 136.522 20.2781C130.492 17.6836 122.453 26.0438 117.571 30.6563C117.859 24.8906 117.055 12.8405 111.542 10.7648Z" fill="var(--fill-0, #2F9DD4)"/>
</g>
<defs>
<filter id="filter0_f_0_6" x="0" y="0" width="182.8" height="173.8" filterUnits="userSpaceOnUse" color-interpolation-filters="sRGB">
<feFlood flood-opacity="0" result="BackgroundImageFix"/>
<feBlend mode="normal" in="SourceGraphic" in2="BackgroundImageFix" result="shape"/>
<feGaussianBlur stdDeviation="4.95" result="effect1_foregroundBlur_0_6"/>
</filter>
</defs>
</svg>
