<svg width="596" height="561" viewBox="0 0 596 561" fill="none" xmlns="http://www.w3.org/2000/svg">
<path d="M371.647 3.15052C351.49 -4.41069 327.554 39.9064 318.105 63.0101C310.756 44.1071 299.207 9.85173e-05 280.31 0C255.114 -0.000131356 245.665 42.0067 236.216 66.1606C219.419 51.4582 185.824 15.7525 163.777 22.0535C136.354 29.8911 148.029 80.8629 151.178 110.268C135.431 96.6154 98.8959 70.5713 78.7388 75.6121C58.5816 80.6529 74.5394 134.421 85.0379 160.676C65.0907 157.525 23.3067 156.895 15.7478 179.579C8.18883 202.262 35.6949 231.037 50.3928 242.589C33.5952 249.94 0 270.313 0 292.997C0 315.681 37.7945 338.154 56.6918 346.555C43.0437 357.057 11.762 375.134 18.8972 400.114C25.1194 421.898 67.1938 418.066 90.4815 415.944L91.3371 415.867C81.8885 436.87 56.6919 475.726 75.5894 491.479C91.3371 504.606 130.182 478.877 151.179 466.275C148.029 485.178 145.51 526.134 160.627 538.736C175.745 551.338 208.921 514.582 223.618 494.629C229.918 514.582 236.216 557.639 258.263 560.79C283.46 564.39 297.108 520.883 308.656 497.78C325.454 516.683 348.439 557.784 374.797 554.489C399.993 551.338 403.143 506.181 409.442 482.027C426.24 497.78 456.685 530.86 478.732 519.833C497.629 510.382 489.231 464.174 485.031 441.071C506.028 447.372 550.542 454.933 560.62 434.77C570.699 414.606 541.723 378.06 525.975 362.308C544.873 361.258 588.676 363.325 595.265 340.254C601.564 318.201 565.87 294.047 544.873 280.395C557.471 273.044 583.297 253.301 585.817 233.137C588.336 212.974 542.773 201.632 519.676 198.482C529.125 181.679 557.471 144.923 548.022 126.02C536.999 103.967 495.53 110.268 469.283 113.418C472.433 92.4148 485.031 47.2576 462.984 37.806C440.938 28.3545 411.542 58.8094 393.694 75.6121C394.744 54.6087 391.804 10.7117 371.647 3.15052Z" fill="#52C46A"/>
</svg>
