<svg width="40" height="42" viewBox="0 0 40 42" fill="none" xmlns="http://www.w3.org/2000/svg">
<path d="M38.7122 28.9584L38.3217 29.5116C37.8122 28.5275 35.191 26.4388 33.3025 25.5055L32.3215 25.5824L32.8688 24.8378C33.2781 24.2895 33.6193 23.7266 33.8971 23.1467C33.5267 22.6179 33.1051 22.2207 32.6299 21.9575C31.7186 24.8743 29.8398 27.5548 28 29.9161C29.7545 28.8414 31.202 27.3818 32.3497 25.5372L32.7006 25.4738C32.7713 25.4056 33.2367 24.8061 33.3025 24.8378C34.9668 25.6444 36.7628 27.5987 38.1127 28.8C38.3028 28.9682 39.0442 28.1251 39.1178 28.27L38.5075 29.7796C38.3217 30.0686 37.6376 31.0784 37.0406 31.5244L36.8042 31.7266C33.8478 35.4596 33.7289 32.1019 32.1523 31.9532L33.5437 32.9816C34.689 34.0952 34.2831 33.7272 32.8736 33.7272L32.7177 33.7004C32.5584 34.8149 32.859 35.9179 31.7332 34.2804C31.1703 33.2521 30.4953 31.4245 31.7332 33.7272C32.1328 34.1927 37.7162 31.7266 32.5584 35.1373C31.7859 35.4955 30.6561 36.0909 29.7789 36.2737C28.5897 37.3386 25.4024 38.535 25.4 38.5399C25.3537 38.6252 24.4994 38.5415 24.4994 38.6832V39.0056C24.3118 37.0196 24.9735 35.9082 25.3171 38.5399L24.7908 38.7592C24.7347 38.8396 24.6738 38.9152 24.6031 38.9785C24.1742 39.3611 22.3515 39.5098 21.6692 39.5512C21.5742 39.5512 21.428 39.5317 21.4182 39.4635C21.2769 38.6374 19.664 37.3938 21.1404 36.454L21.3671 36.2542C21.3524 36.0739 21.4694 35.9277 21.7155 35.818C21.5547 35.6206 21.389 35.4184 21.2184 35.2088C21.1892 35.5134 20.1886 35.8619 19.9863 35.6158H20.6701L18.2333 36.6027C17.958 36.549 18.6969 36.4267 17.7801 36.7391C18.0522 36.4267 17.9068 36.7294 17.9409 36.7586C18.0774 36.8731 19.0193 39.9727 18.399 40.2749L18.1748 40.4747C17.6339 40.8914 16.0816 41.5226 15.414 41.5079C15.2629 41.5055 15.1337 41.4129 15.0216 41.3227C14.6317 40.7988 14.5684 40.1238 14.8657 39.5414L14.8286 39.6187C15.3939 39.4993 16.145 38.9176 16.6348 38.6276C16.0037 38.1646 15.2599 37.4095 14.8286 36.7491L14.4157 36.6075C14.2183 34.4388 14.4157 35.7998 14.4157 36.6075H14.0469L13.8471 36.861C12.9016 36.744 12.0049 36.4077 11.152 35.857C10.3357 35.701 9.56564 35.4232 8.83703 35.026L8.70788 34.6581L8.38137 34.4926C9.61439 32.2507 9.9824 32.6745 8.6056 35.026C7.50173 36.4662 6.76957 36.7491 7.52116 33.6785C7.36277 33.737 7.18866 33.5857 7.14589 33.5591C7.09193 33.5255 6.88759 33.4153 6.88516 33.1984L6.87784 32.8817L8.10112 31.9727L5.51324 31.9825L5.15777 31.9137L4.54826 31.3806C3.75874 30.7787 2.3722 29.2177 2.18944 28.2722C2.15533 27.7483 3.32012 27.7059 3.81479 27.7961L3.96268 27.5658C4.43055 28.1482 5.05024 28.8366 5.57172 29.3532C5.40358 28.6173 5.2793 27.8716 5.2062 27.1211V26.3929L5.0942 25.6317L7.09193 26.1112C6.57289 26.3403 6.12 26.218 5.57172 26.5542V26.6229C5.70331 27.8828 5.20894 25.8717 5.15777 25.7888C4.76788 25.1796 5.18427 20.6562 5.58634 20.0251C5.59122 20.0202 5.53517 20.1202 5.49131 20.1275C5.09411 20.1884 3.6564 19.6767 3.27382 19.4427C2.86687 19.1966 2.34296 18.5874 2.12365 18.1658C1.99937 21.246 2.34053 24.2432 3.72463 27.065L4.19069 28.0454C4.44411 28.289 2.73285 28.32 2.53059 28.4028C2.39901 28.4564 2.57888 28.6901 2.18944 28.3614C-0.685979 23.4854 -0.57145 16.0361 1.61436 10.9188C2.41363 9.04733 3.34693 7.39519 4.44836 5.72842C5.77398 3.7278 7.3384 2.14876 9.43892 0.966909C11.2616 -0.0589831 13.3695 -0.295354 15.3725 0.38695C16.3521 0.720791 17.261 0.983966 17.9628 1.84172C18.1261 2.04154 18.5063 2.19262 18.7767 2.07565C19.8952 1.60048 21.0308 1.65409 22.2004 1.52981C24.1864 1.31781 26.0189 1.68577 27.6954 2.79695C28.9065 3.60109 30.5903 3.49631 32.0695 4.83167C33.5023 5.68699 34.5428 6.959 35.2982 8.43814C37.7887 9.89291 38.8413 12.5953 38.9949 15.4342L39.1971 17.2715C39.2873 18.0879 39.297 18.8628 39.5042 19.662C40.2401 22.5277 40.2951 26.7559 38.7098 28.9462L38.7122 28.9584Z" fill="#EF6A22"/>
<path d="M14.8284 39.6503L15.1507 41.2621C13.2744 41.5326 10.5551 41.5421 9.19541 40.158C8.016 38.9542 7.40436 37.3459 7.24597 35.7522C7.32882 35.5646 7.51402 35.4257 7.79913 35.3331C8.05986 34.9335 8.32791 34.7483 8.60083 34.78L8.87863 34.9603C9.27826 38.0599 10.7355 40.0971 14.1202 39.5098L14.3444 39.7583L14.8284 39.6503Z" fill="#EF6A22"/>
<path d="M36.1634 32.2189C36.1902 32.5746 35.888 32.7038 35.6419 32.9061C35.2837 33.1985 34.5357 33.6846 34.1702 33.8478C33.8314 33.3239 32.401 32.3815 31.9136 31.9137L36.749 31.5913L36.1634 32.2189Z" fill="#EF6A22"/>
<path d="M23.039 23.3198L23.329 23.254C25.7853 24.8306 27.5739 21.3021 24.2794 21.1997L24.082 20.9707C24.3647 20.1056 24.6351 19.2064 24.9519 18.2926C25.0567 18.0685 25.4734 18.3511 25.6586 18.3828C26.6772 18.5607 27.7981 18.9944 28.7777 19.4574C29.2846 19.6962 29.8133 19.84 30.2568 20.2397C29.9961 21.4702 29.3333 22.4913 28.7948 23.6219C27.6787 25.9637 26.1167 27.9765 24.1916 29.7188C23.848 30.0283 23.5459 30.5644 23.0878 30.6375C22.7637 30.6667 22.6881 30.1379 22.5639 29.9552C22.1593 29.3557 21.7621 28.7782 21.4722 28.0642C22.1374 26.5242 22.6175 24.9524 23.0415 23.3198H23.039Z" fill="white"/>
<path d="M4.17303 17.3642C3.34208 16.5235 4.63114 12.9682 5.64242 11.4086L7.50901 8.52833L9.82396 5.76013L11.5809 4.10067L12.6165 3.29165C13.1088 2.90664 13.8154 2.47045 14.4466 2.39247C15.0777 2.3145 15.5894 2.94563 16.0012 3.27216C15.8161 3.68642 15.5066 3.84481 15.1654 4.03731C14.0177 4.68794 12.9626 5.44335 12.1316 6.45949C9.51205 9.66632 7.47733 13.6895 6.33203 17.681C5.63754 17.854 4.75055 17.949 4.17303 17.3642Z" fill="white"/>
<path d="M16.9978 5.50184L16.4403 6.12488C15.9724 6.39536 17.085 5.1578 17.085 5.48016C16.5172 6.20145 17.4074 7.09196 17.4074 6.44724C17.4074 7.09196 16.1179 6.12488 17.4074 6.7696C17.5853 7.41048 17.1489 7.47077 17.0953 8.15795C16.4836 9.63222 16.0352 11.0967 15.6478 12.6514C14.868 13.7918 13.9469 14.7592 12.8309 15.5512C11.6685 16.1409 10.6426 16.8232 9.20734 17.1302C9.63134 15.3782 10.3624 13.7845 11.2104 12.2469C11.7489 11.2673 12.2411 10.3267 12.9137 9.44214C13.289 8.94747 13.5863 8.45524 14.0127 7.98981C14.7876 7.14181 16.3496 5.20699 16.7858 5.26303C16.8686 5.27278 16.9612 5.39462 16.9978 5.50184Z" fill="white"/>
<path d="M13.8033 27.4134C13.1941 27.2185 13.0504 26.7653 12.7043 26.4387C12.0293 25.8027 11.4616 25.1594 10.9864 24.3943C10.7403 23.9995 10.6794 23.8192 10.9669 23.4025C12.0147 21.8819 13.1624 20.4515 14.817 19.4061C14.8974 20.1201 15.0047 20.7561 15.0339 21.4189C15.0875 22.6178 13.9374 25.4445 13.8033 27.4159V27.4134Z" fill="white"/>
<path d="M14.0517 36.61C14.1419 37.6578 14.2613 38.708 14.349 39.7559C13.4523 39.7218 12.5531 39.907 11.6271 39.6584C9.5217 39.0979 8.94906 36.783 8.60547 34.7775C8.63958 34.7361 8.68832 34.7068 8.71269 34.6605C9.38281 35.104 10.0944 35.3794 10.9131 35.5329C11.7977 35.6986 12.692 36.7269 14.0517 36.61Z" fill="white"/>
<path d="M12.8091 29.5554C11.9928 30.2572 10.9864 30.3839 10.0092 30.6422C9.58521 29.9063 9.18313 29.185 9.16608 28.3565L9.58765 26.2999C9.79721 26.2219 10.0019 26.4802 10.0019 26.7019C10.7671 27.7717 11.6662 28.627 12.8091 29.5579V29.5554Z" fill="white"/>
<path d="M34.833 20.4954C34.2725 20.0884 33.8193 19.6888 33.1857 19.3988L33.4976 15.5828C33.5415 15.0467 33.388 14.5325 33.5829 13.972C34.37 15.5413 34.6892 17.2374 34.8306 19.0016C34.8696 19.4841 35.0816 19.8862 34.8306 20.4954H34.833Z" fill="white"/>
<path d="M20.8626 18.0197C21.1769 19.1748 20.9796 22.0477 19.9366 23.3149C19.4663 21.6116 19.5297 19.8156 19.9975 18.0953C20.0658 17.8443 20.8041 17.8004 20.865 18.0197H20.8626Z" fill="white"/>
<path d="M27.3324 33.8077C27.7661 33.3423 28.1828 32.8549 28.697 32.5308C29.969 31.7291 31.163 30.9226 32.3132 29.9405C32.5325 29.7529 32.8371 29.709 33.0223 29.4117C32.9541 29.865 32.7153 30.1379 32.4399 30.4376C31.241 31.7364 29.9885 32.9329 28.4948 33.8979C28.2267 34.0709 27.7442 34.0149 27.3324 33.8077Z" fill="#FEFDFE"/>
<path d="M21.0114 7.41714C21.0162 7.14421 20.9115 6.7324 20.6215 6.59106L20.563 5.77961L21.7643 4.32971C22.259 4.64893 22.6903 5.03882 22.9413 5.62365L21.2867 7.7388C21.0747 7.63158 21.0528 7.51217 21.0089 7.4147L21.0114 7.41714Z" fill="white"/>
<path d="M5.82536 8.00689C5.31607 8.68676 5.04315 9.38368 4.45588 9.99775C4.28043 10.1805 4.36815 10.6947 3.84668 10.7312C4.62158 8.96455 5.65478 7.29047 6.87075 5.71873C7.71388 4.63192 8.63743 3.63527 9.97279 3.06262L7.67245 5.53354L5.82536 8.00689Z" fill="#FEFCFD"/>
<path d="M14.8657 39.5439L14.6342 36.9998C14.6172 36.8439 14.7195 36.7099 14.8536 36.7245C14.9315 36.7342 15.0899 36.7732 15.1533 36.8707C15.6577 37.6261 16.3156 38.0915 17.1149 38.6837C16.3498 39.1467 15.6163 39.3562 14.8657 39.5463V39.5439Z" fill="#FFFEFF"/>
<path d="M26.7673 8.84025C26.5114 8.93285 26.3286 9.19115 25.9753 9.13754C25.851 8.76714 25.7511 8.37482 25.7584 7.94351C26.7478 7.20516 28.1392 7.14424 29.0652 8.0093L26.7697 8.84269L26.7673 8.84025Z" fill="#FFFEFF"/>
<path d="M19.5493 8.5234C19.3617 9.05462 19.4713 9.60047 19.9075 9.96355C19.7905 10.5143 19.52 11.0162 19.3056 11.5816L18.7671 12.9901C18.6672 13.2508 18.1189 13.2313 17.8898 13.0461C18.6331 11.6157 19.1155 10.2316 19.1545 8.66473C19.157 8.55751 19.2886 8.45273 19.347 8.45029C19.4055 8.44786 19.4859 8.49172 19.5517 8.5234H19.5493Z" fill="#FFFEFE"/>
<path d="M16.0231 34.3097C16.2643 33.8004 16.8686 33.6322 17.2707 33.2472C17.9262 32.6234 18.1138 32.5089 19.4078 33.1838C18.4209 33.7565 17.3511 34.3023 16.0231 34.3121V34.3097Z" fill="#FFFEFE"/>
<path d="M9.60707 21.4847C9.24155 20.8292 9.20012 20.2639 9.03198 19.5255L10.784 18.9626L9.60707 21.4847Z" fill="#FFFDFE"/>
<path d="M23.6771 14.8811C23.3846 14.8811 23.0922 14.8494 22.7998 14.8737L22.7097 13.4287L23.8793 12.4662C24.1327 13.2728 23.6381 14.0794 23.6771 14.8835V14.8811Z" fill="#FFFEFF"/>
<path d="M13.6061 31.9143C12.9335 32.4772 11.4056 32.945 10.95 32.2895C12.1659 32.0849 13.2722 31.1808 13.6304 31.3831C13.7425 31.4488 13.7498 31.7924 13.6061 31.9143Z" fill="#FEFCFD"/>
<path d="M16.6372 27.0065C16.374 27.4281 16.006 27.6937 15.5114 27.8837C15.5284 27.0504 15.66 26.3315 15.911 25.4738C16.2838 25.9441 16.3374 26.4192 16.6372 27.0089V27.0065Z" fill="#FEFDFD"/>
<path d="M17.2882 23.3732C16.9275 22.6105 16.7643 21.6845 17.3589 20.895C17.5124 21.7308 17.4368 22.5155 17.2882 23.3732Z" fill="#FDF2F8"/>
<path d="M24.9345 3.8911C24.7859 4.14696 24.4252 4.34922 24.1621 4.242C23.8989 4.13478 23.7112 3.76926 23.5529 3.48415C24.106 3.48171 24.4983 3.69372 24.9345 3.89354V3.8911Z" fill="#FDF7FA"/>
<path d="M21.3672 36.2591C21.3355 35.918 21.3209 35.5695 21.2186 35.2137C21.4866 35.2503 21.9862 35.4599 21.9496 35.8717C21.9301 36.0959 21.5037 36.225 21.3672 36.2591Z" fill="#FDF8FB"/>
<path d="M14.8219 16.8524C15.1801 17.3105 14.4028 17.9441 13.6718 18.0026L14.8219 16.8524Z" fill="#FBEAF2"/>
<path d="M23.3288 10.5655C23.4799 10.2219 23.7065 9.98307 23.9965 9.7467C24.0745 9.93677 24.0647 10.1902 23.9599 10.3218C23.8673 10.4363 23.6773 10.6045 23.3264 10.5655H23.3288Z" fill="#F6D8E9"/>
<path d="M3.24933 12.0957C3.28588 11.5596 3.51007 11.1722 3.85122 10.814C3.80248 11.3647 3.58073 11.7156 3.24933 12.0957Z" fill="#EF6A22"/>
<path d="M21.5273 39.5139C20.0912 39.493 19.3318 39.9333 18.0521 40.2951L17.4074 37.3567C19.2487 37.4889 19.6591 37.206 21.2757 36.4268L21.5273 39.5139Z" fill="#EF6A22"/>
</svg>
