<svg preserveAspectRatio="none" width="100%" height="100%" overflow="visible" style="display: block;" viewBox="0 0 270 281" fill="none" xmlns="http://www.w3.org/2000/svg">
<path id="Vector 23" d="M112.669 0.236493C71.4203 4.36545 77.3785 64.9222 83.7949 97.9532C68.212 84.1903 30.9965 65.7481 6.79724 102.082C-17.402 138.416 28.7966 164.015 54.9207 172.273C42.5461 187.412 21.6467 222.645 37.0463 242.464C52.4458 262.282 91.128 250.722 108.544 242.464C112.669 255.309 129.718 281 164.917 281C200.116 281 201.583 231.454 197.916 206.68C213.041 219.526 247.69 236.408 265.289 201.175C282.889 165.942 246.957 131.443 226.791 118.598C242.832 102.541 269.964 66.0233 250.165 48.4068C230.365 30.7903 182.334 65.8398 160.793 85.5667C160.793 64.9223 160.573 -4.55867 112.669 0.236493Z" fill="var(--fill-0, #4FB4E5)"/>
</svg>
