<svg width="1180" height="1023" viewBox="0 0 1180 1023" fill="none" xmlns="http://www.w3.org/2000/svg">
<path d="M901.811 91.2428C858.414 61.9624 815.396 125.522 795.008 162.746C790.963 136.818 769.675 88.8943 716.884 104.617C664.094 120.34 688.34 182.456 707.062 211.549C682.839 216.251 634.142 233.568 633.128 265.223C632.114 296.878 679.008 316.877 702.581 322.919C696.236 338.71 692.092 377.393 726.285 405.798C760.477 434.202 801.834 387.316 818.238 360.323C822.577 384.99 842.629 429.33 888.121 409.349C933.614 389.369 926.513 326.902 917.277 298.167C945.8 295.533 1001.59 282 996.553 248.931C991.517 215.862 916.611 211.107 879.787 212.863C896.425 192.834 952.21 125.248 901.811 91.2428Z" fill="#FCB040"/>
<path d="M955.647 113.151C935.49 105.589 911.554 149.906 902.105 173.01C894.756 154.107 883.207 110 864.31 110C839.114 110 829.665 152.007 820.216 176.161C803.419 161.458 769.824 125.753 747.777 132.054C720.354 139.891 732.029 190.863 735.178 220.268C719.431 206.615 682.896 180.571 662.739 185.612C642.582 190.653 658.539 244.422 669.038 270.676C649.091 267.525 607.307 266.895 599.748 289.579C592.189 312.262 619.695 341.037 634.393 352.589C617.595 359.94 584 380.313 584 402.997C584 425.681 621.795 448.154 640.692 456.555C627.044 467.057 595.762 485.134 602.897 510.114C609.119 531.898 651.194 528.066 674.482 525.944L675.337 525.867C665.888 546.87 640.692 585.726 659.589 601.479C675.337 614.606 714.182 588.877 735.179 576.275C732.029 595.178 729.51 636.134 744.627 648.736C759.745 661.338 792.921 624.582 807.618 604.629C813.918 624.582 820.216 667.639 842.263 670.79C867.46 674.39 881.108 630.883 892.656 607.78C909.454 626.683 932.439 667.784 958.797 664.489C983.993 661.338 987.143 616.181 993.442 592.027C1010.24 607.78 1040.68 640.86 1062.73 629.833C1081.63 620.382 1073.23 574.174 1069.03 551.071C1090.03 557.372 1134.54 564.933 1144.62 544.77C1154.7 524.606 1125.72 488.061 1109.98 472.308C1128.87 471.258 1172.68 473.325 1179.27 450.254C1185.56 428.201 1149.87 404.047 1128.87 390.395C1141.47 383.044 1167.3 363.301 1169.82 343.137C1172.34 322.974 1126.77 311.632 1103.68 308.482C1113.12 291.679 1141.47 254.923 1132.02 236.02C1121 213.967 1079.53 220.268 1053.28 223.418C1056.43 202.415 1069.03 157.258 1046.98 147.806C1024.94 138.355 995.542 168.809 977.694 185.612C978.744 164.609 975.804 120.712 955.647 113.151Z" fill="#52C46A"/>
<path d="M380.988 74.7987C241.506 88.7431 261.654 293.257 283.351 404.81C230.658 358.33 104.814 296.046 22.9848 418.754C-58.8445 541.463 97.375 627.916 185.713 655.805C143.869 706.933 73.1981 825.923 125.271 892.855C177.345 959.787 308.148 920.743 367.04 892.855C380.988 936.237 438.641 1023 557.665 1023C676.69 1023 681.649 855.67 669.251 772.006C720.394 815.387 837.559 872.403 897.071 753.413C956.583 634.424 835.079 517.913 766.888 474.531C821.131 420.304 912.879 296.976 845.928 237.481C778.977 177.986 616.558 296.356 543.717 362.978C543.717 293.257 542.976 58.6043 380.988 74.7987Z" fill="#4FB4E5"/>
<path d="M539.988 0.798691C400.506 14.7431 420.654 219.257 442.351 330.81C389.658 284.33 263.814 222.046 181.985 344.754C100.156 467.463 256.375 553.916 344.713 581.805C302.869 632.933 232.198 751.923 284.271 818.855C336.345 885.787 467.148 846.743 526.04 818.855C539.988 862.237 597.641 949 716.665 949C835.69 949 840.649 781.67 828.251 698.006C879.394 741.387 996.559 798.403 1056.07 679.413C1115.58 560.424 994.079 443.913 925.888 400.531C980.131 346.304 1071.88 222.976 1004.93 163.481C937.977 103.986 775.558 222.356 702.717 288.978C702.717 219.257 701.976 -15.3957 539.988 0.798691Z" fill="#EE91A9"/>
<path d="M648.647 113.151C628.49 105.589 604.554 149.906 595.105 173.01C587.756 154.107 576.207 110 557.31 110C532.114 110 522.665 152.007 513.216 176.161C496.419 161.458 462.824 125.753 440.777 132.054C413.354 139.891 425.029 190.863 428.178 220.268C412.431 206.615 375.896 180.571 355.739 185.612C335.582 190.653 351.539 244.421 362.038 270.676C342.091 267.525 300.307 266.895 292.748 289.579C285.189 312.262 312.695 341.037 327.393 352.589C310.595 359.94 277 380.313 277 402.997C277 425.681 314.795 448.154 333.692 456.555C320.044 467.057 288.762 485.134 295.897 510.114C302.119 531.898 344.194 528.066 367.482 525.944L368.337 525.867C358.888 546.87 333.692 585.726 352.589 601.479C368.337 614.606 407.182 588.877 428.179 576.275C425.029 595.178 422.51 636.134 437.627 648.736C452.745 661.338 485.921 624.582 500.618 604.629C506.918 624.582 513.216 667.639 535.263 670.79C560.46 674.39 574.108 630.883 585.656 607.78C602.454 626.683 625.439 667.784 651.797 664.489C676.993 661.338 680.143 616.181 686.442 592.027C703.24 607.78 733.685 640.86 755.732 629.833C774.629 620.382 766.231 574.174 762.031 551.071C783.028 557.372 827.542 564.933 837.62 544.77C847.699 524.606 818.723 488.061 802.975 472.308C821.873 471.258 865.676 473.325 872.265 450.254C878.564 428.201 842.87 404.047 821.873 390.395C834.471 383.044 860.297 363.301 862.817 343.137C865.336 322.974 819.773 311.632 796.676 308.482C806.125 291.679 834.471 254.923 825.022 236.02C813.999 213.967 772.53 220.268 746.283 223.418C749.433 202.415 762.031 157.258 739.984 147.806C717.938 138.355 688.542 168.809 670.694 185.612C671.744 164.609 668.804 120.712 648.647 113.151Z" fill="#F05A29"/>
</svg>
