<svg preserveAspectRatio="none" width="100%" height="100%" overflow="visible" style="display: block;" viewBox="0 0 242 228" fill="none" xmlns="http://www.w3.org/2000/svg">
<path id="Vector 25" d="M150.904 1.28042C142.719 -1.79258 133 16.2186 129.163 25.6084C126.179 17.9259 121.49 4.00392e-05 113.817 1.25202e-10C103.586 -5.33851e-05 99.7499 17.0722 95.9133 26.8888C89.0928 20.9135 75.4518 6.40209 66.4999 8.96293C55.3651 12.1482 60.1057 32.8641 61.3845 44.8146C54.9903 39.2662 40.1557 28.6814 31.9711 30.73C23.7865 32.7787 30.266 54.6312 34.5288 65.3013C26.4295 64.0209 9.46345 63.7648 6.39422 72.9839C3.325 82.2029 14.4936 93.8974 20.4615 98.5922C13.641 101.58 0 109.86 0 119.079C0 128.298 15.3461 137.432 23.0191 140.846C17.4775 145.114 4.77583 152.461 7.67301 162.613C10.1995 171.467 27.2832 169.909 36.739 169.047L37.0866 169.015C33.25 177.551 23.0192 193.343 30.6923 199.745C37.0866 205.08 52.859 194.624 61.3847 189.502C60.1058 197.184 59.0827 213.83 65.2212 218.952C71.3596 224.073 84.8301 209.135 90.7981 201.026C93.3558 209.135 95.9133 226.634 104.865 227.915C115.096 229.378 120.638 211.696 125.327 202.306C132.147 209.989 141.48 226.693 152.183 225.354C162.413 224.073 163.692 205.721 166.25 195.904C173.07 202.306 185.432 215.751 194.384 211.269C202.057 207.428 198.647 188.648 196.942 179.259C205.468 181.819 223.542 184.892 227.634 176.698C231.727 168.503 219.961 153.65 213.567 147.248C221.24 146.821 239.026 147.661 241.702 138.285C244.259 129.322 229.766 119.506 221.24 113.957C226.356 110.97 236.842 102.946 237.865 94.751C238.888 86.5563 220.388 81.9468 211.009 80.6664C214.846 73.8375 226.355 58.8993 222.519 51.2167C218.043 42.2538 201.205 44.8147 190.548 46.0951C191.827 37.5589 196.942 19.2063 187.99 15.365C179.038 11.5238 167.102 23.9011 159.856 30.73C160.282 22.1939 159.088 4.35343 150.904 1.28042Z" fill="var(--fill-0, #52C46A)"/>
</svg>
