<svg preserveAspectRatio="none" width="100%" height="100%" overflow="visible" style="display: block;" viewBox="0 0 155.6 147.6" fill="none" xmlns="http://www.w3.org/2000/svg">
<g id="Vector 23" filter="url(#filter0_f_0_5)">
<path d="M94.729 10.0245C90.0956 8.28578 84.5934 18.4763 82.4214 23.789C80.7322 19.4423 78.0775 9.30002 73.7337 9.3C67.9419 9.29997 65.77 18.9593 63.5981 24.5134C59.7369 21.1326 52.0145 12.9222 46.9467 14.3711C40.643 16.1733 43.3268 27.8942 44.0508 34.6557C40.4309 31.5164 32.0328 25.5276 27.3994 26.6867C22.7659 27.8459 26.4341 40.2098 28.8473 46.2468C24.2621 45.5224 14.6574 45.3775 12.9199 50.5935C11.1823 55.8095 17.505 62.4262 20.8836 65.0825C17.0224 66.7728 9.3 71.4576 9.3 76.6736C9.3 81.8896 17.9877 87.0574 22.3315 88.9892C19.1943 91.404 12.0037 95.5608 13.6438 101.305C15.0741 106.314 24.7455 105.433 30.0986 104.945L30.2953 104.927C28.1234 109.757 22.3315 118.692 26.6754 122.314C30.2953 125.332 39.2243 119.416 44.0508 116.518C43.3268 120.865 42.7477 130.283 46.2227 133.181C49.6978 136.078 57.3237 127.626 60.7022 123.038C62.1502 127.626 63.5981 137.527 68.6659 138.252C74.4577 139.08 77.595 129.075 80.2495 123.763C84.1107 128.109 89.3943 137.561 95.453 136.803C101.245 136.078 101.969 125.695 103.417 120.14C107.278 123.763 114.276 131.369 119.344 128.834C123.688 126.661 121.757 116.035 120.792 110.723C125.619 112.172 135.851 113.91 138.167 109.274C140.484 104.637 133.824 96.2337 130.204 92.6115C134.548 92.37 144.617 92.8453 146.131 87.5403C147.579 82.4692 139.374 76.9151 134.548 73.7758C137.443 72.0855 143.38 67.5456 143.959 62.9091C144.538 58.2727 134.065 55.6646 128.756 54.9402C130.928 51.0765 137.443 42.6246 135.272 38.2779C132.738 33.2068 123.205 34.6557 117.172 35.3801C117.896 30.5505 120.792 20.1667 115.724 17.9934C110.656 15.82 103.899 22.823 99.7968 26.6867C100.038 21.8571 99.3624 11.7631 94.729 10.0245Z" fill="var(--fill-0, #52C46A)"/>
</g>
<defs>
<filter id="filter0_f_0_5" x="0" y="0" width="155.6" height="147.6" filterUnits="userSpaceOnUse" color-interpolation-filters="sRGB">
<feFlood flood-opacity="0" result="BackgroundImageFix"/>
<feBlend mode="normal" in="SourceGraphic" in2="BackgroundImageFix" result="shape"/>
<feGaussianBlur stdDeviation="4.65" result="effect1_foregroundBlur_0_5"/>
</filter>
</defs>
</svg>
