<svg preserveAspectRatio="none" width="100%" height="100%" overflow="visible" style="display: block;" viewBox="0 0 399 376" fill="none" xmlns="http://www.w3.org/2000/svg">
<path id="Vector 22" d="M248.804 2.11158C235.31 -2.95619 219.285 26.7465 212.96 42.2314C208.04 29.562 200.308 6.60296e-05 187.657 2.06473e-10C170.789 -8.80385e-05 164.464 28.1542 158.138 44.3429C146.893 34.4889 124.402 10.5578 109.642 14.781C91.2837 20.0339 99.0999 54.1969 101.208 73.9049C90.6659 64.7547 66.2072 47.2991 52.7127 50.6776C39.2183 54.0561 49.9014 90.0936 56.9297 107.69C43.5758 105.578 15.603 105.156 10.5425 120.359C5.48212 135.563 23.8964 154.848 33.7361 162.591C22.4908 167.518 0 181.173 0 196.376C0 211.579 25.302 226.642 37.953 232.272C28.8162 239.311 7.87421 251.427 12.6509 268.169C16.8165 282.769 44.9836 280.201 60.5739 278.779L61.1468 278.727C54.8213 292.804 37.9532 318.847 50.6043 329.405C61.1468 338.203 87.1518 320.958 101.209 312.512C99.1001 325.181 97.4133 352.632 107.534 361.078C117.655 369.524 139.865 344.889 149.704 331.516C153.921 344.889 158.138 373.747 172.898 375.859C189.766 378.272 198.903 349.113 206.634 333.628C217.879 346.297 233.267 373.845 250.913 371.636C267.781 369.524 269.889 339.259 274.106 323.07C285.352 333.628 305.734 355.799 320.493 348.409C333.144 342.074 327.522 311.104 324.71 295.619C338.767 299.843 368.567 304.91 375.315 291.396C382.062 277.882 362.664 253.388 352.121 242.83C364.772 242.126 394.097 243.512 398.508 228.049C402.725 213.268 378.829 197.08 364.772 187.93C373.206 183.003 390.496 169.77 392.183 156.256C393.87 142.742 363.366 135.14 347.904 133.029C354.23 121.767 373.206 97.1321 366.881 84.4627C359.501 69.6817 331.739 73.9049 314.168 76.0164C316.276 61.9393 324.71 31.6735 309.951 25.3388C295.192 19.0041 275.512 39.4159 263.564 50.6776C264.267 36.6005 262.299 7.17934 248.804 2.11158Z" fill="var(--fill-0, #52C46A)"/>
</svg>
