<svg width="87" height="83" viewBox="0 0 87 83" fill="none" xmlns="http://www.w3.org/2000/svg">
<g filter="url(#filter0_f_281_520)">
<path d="M52.0735 8.17631C49.6722 7.27328 46.8207 12.5661 45.6951 15.3253C44.8196 13.0677 43.4439 7.80006 41.1927 7.80005C38.1911 7.80003 37.0655 12.8169 35.9399 15.7016C33.9389 13.9457 29.9367 9.68137 27.3104 10.4339C24.0435 11.3699 25.4344 17.4575 25.8096 20.9693C23.9336 19.3388 19.5813 16.2283 17.18 16.8304C14.7787 17.4324 16.6797 23.854 17.9304 26.9895C15.5541 26.6132 10.5765 26.538 9.67604 29.2471C8.77556 31.9562 12.0523 35.3927 13.8032 36.7723C11.8022 37.6503 7.80005 40.0835 7.80005 42.7925C7.80005 45.5016 12.3024 48.1857 14.5536 49.189C12.9277 50.4432 9.20122 52.6021 10.0512 55.5855C10.7925 58.1872 15.8047 57.7295 18.5789 57.4761L18.6808 57.4668C17.5552 59.9752 14.5536 64.6158 16.8048 66.4971C18.6808 68.0649 23.3083 64.9921 25.8096 63.487C25.4344 65.7446 25.1342 70.636 26.9352 72.1411C28.7361 73.6461 32.6882 69.2564 34.4392 66.8734C35.1896 69.2564 35.9399 74.3987 38.5663 74.7749C41.5679 75.2049 43.1938 70.0089 44.5695 67.2497C46.5706 69.5072 49.3088 74.416 52.4487 74.0224C55.4502 73.6461 55.8255 68.253 56.5759 65.3683C58.5769 67.2497 62.2038 71.2004 64.8302 69.8835C67.0814 68.7547 66.0809 63.2362 65.5806 60.4769C68.0819 61.2295 73.3847 62.1325 74.5854 59.7244C75.786 57.3163 72.3342 52.9517 70.4582 51.0703C72.7094 50.9449 77.9276 51.1918 78.7125 48.4365C79.4629 45.8027 75.2107 42.918 72.7094 41.2875C74.2102 40.4095 77.2868 38.0516 77.587 35.6435C77.8871 33.2355 72.4592 31.8809 69.7078 31.5046C70.8334 29.4979 74.2101 25.1082 73.0846 22.8506C71.7714 20.2167 66.8313 20.9693 63.7046 21.3455C64.0798 18.8371 65.5806 13.444 62.9542 12.3152C60.3279 11.1864 56.826 14.8236 54.6999 16.8304C54.8249 14.3219 54.4747 9.07935 52.0735 8.17631Z" fill="#F05A29"/>
</g>
<defs>
<filter id="filter0_f_281_520" x="4.86374e-05" y="4.86374e-05" width="86.6" height="82.6" filterUnits="userSpaceOnUse" color-interpolation-filters="sRGB">
<feFlood flood-opacity="0" result="BackgroundImageFix"/>
<feBlend mode="normal" in="SourceGraphic" in2="BackgroundImageFix" result="shape"/>
<feGaussianBlur stdDeviation="3.9" result="effect1_foregroundBlur_281_520"/>
</filter>
</defs>
</svg>
