<svg width="492" height="511" viewBox="0 0 492 511" fill="none" xmlns="http://www.w3.org/2000/svg">
<path fill-rule="evenodd" clip-rule="evenodd" d="M260.027 448.384C259.253 448.877 258.548 449.376 257.908 449.881L257.449 450.105C243.754 456.763 237.368 459.868 223.617 459.871C222.296 455.554 221.125 452.511 220.673 452.131C220.548 452.024 220.619 451.618 220.692 451.202L220.694 451.19C222.105 450.678 223.038 450.297 223.633 450.018C223.76 450.087 223.964 450.153 224.27 450.213L253.902 438.212C257.45 437.069 260.801 434.997 260.986 433.068L261.042 433.136C262.18 434.535 263.301 435.907 264.404 437.257L264.43 437.288C265.332 438.393 266.222 439.483 267.101 440.561C264.074 441.91 262.635 443.709 262.815 445.927L260.027 448.384ZM226.308 495.381C226.909 495.088 227.39 494.582 227.767 493.898C229.797 493.249 231.736 492.597 233.626 491.962V491.962L233.636 491.959V491.959C243.194 488.748 251.507 485.955 263.957 486.012C264.603 486.364 265.719 486.48 266.531 486.48C274.924 485.97 297.343 484.142 302.618 479.436C303.488 478.657 304.237 477.728 304.926 476.738L310.229 474.529C311.408 474.453 312.267 474.321 312.419 474.041C312.419 474.041 312.431 474.035 312.452 474.026C312.48 474.015 312.524 473.997 312.584 473.974C312.691 473.931 312.85 473.869 313.057 473.788C318.178 471.788 352.748 458.284 366.28 446.166C375.083 444.332 385.957 439.119 394.821 434.869L394.838 434.861C396.831 433.905 398.724 432.998 400.468 432.189C414.92 422.632 422.516 416.827 425.572 413.492C426.239 412.763 426.69 412.153 426.948 411.647C427.857 411.491 428.806 411.233 429.799 410.861C435.573 408.696 442.855 402.658 452.691 390.238L455.599 387.75C462.942 382.265 471.357 369.844 473.642 366.289L481.147 347.727C495.425 319.378 494.094 273.746 485.901 241.843C484.073 234.791 483.495 227.893 482.905 220.851C482.673 218.077 482.438 215.278 482.125 212.44L479.637 189.84C477.749 154.922 464.8 121.683 434.168 103.789C424.877 85.5957 412.079 69.95 394.455 59.4296C383.759 49.7735 372.193 46.2396 361.45 42.9571C353.919 40.6561 346.793 38.4786 340.654 34.4025C320.033 20.7349 297.493 16.209 273.065 18.8167C269.485 19.197 265.932 19.4419 262.401 19.6853C251.741 20.4198 241.288 21.1402 230.954 25.5305C227.627 26.9692 222.951 25.1109 220.943 22.6532C212.879 12.7971 202.591 9.32346 191.449 5.56119C190.664 5.29616 189.875 5.0297 189.082 4.75948C164.445 -3.63285 138.518 -0.725493 116.099 11.893C90.2623 26.4297 71.0199 45.852 54.7148 70.4595C41.1672 90.9608 29.6876 111.282 19.8566 134.301C-7.02883 197.244 -8.43754 288.87 26.9302 348.845C27.0412 348.939 27.1484 349.029 27.252 349.115C30.4724 360.829 46.6041 378.861 55.9437 385.981L63.4405 392.538L67.8128 393.385L99.6438 393.265L84.5975 404.445L84.6874 408.341C84.7156 410.846 86.9353 412.194 87.7545 412.691L87.8283 412.736L87.8434 412.745L87.8945 412.777C87.9359 412.803 87.9873 412.838 88.0479 412.881L88.1018 412.919L88.1812 412.976C88.9814 413.55 90.8202 414.87 92.5103 414.246C88.795 429.425 88.0274 437.941 89.3196 441.549C91.2427 446.918 97.728 441.415 105.849 430.82C106.467 429.765 107.056 428.741 107.618 427.749L108.696 430.82C117.657 435.706 127.129 439.123 137.169 441.041C147.66 447.815 158.69 451.951 170.319 453.39L172.747 450.31L172.777 450.273H177.313L181.783 451.805L182.392 452.014C187.697 460.136 196.845 469.425 204.608 475.12C203.035 476.051 201.243 477.227 199.33 478.482C196.044 480.638 192.4 483.029 188.895 484.818C186.624 485.977 184.412 486.883 182.392 487.31C182.327 487.453 182.264 487.597 182.203 487.741C179.382 494.394 180.227 501.836 184.421 507.793C184.533 507.953 184.648 508.112 184.766 508.27C186.145 509.379 187.733 510.518 189.592 510.548C197.804 510.727 216.897 502.965 223.551 497.839L226.308 495.381ZM170.239 332.462C170.041 334.073 169.886 335.651 169.781 337.186C164.618 335.534 162.173 332.373 159.759 329.254C158.67 327.846 157.587 326.446 156.263 325.197C147.961 317.374 140.977 309.461 135.133 300.05C132.105 295.194 131.356 292.976 134.893 287.851C147.781 269.148 161.898 251.554 182.25 238.696C182.558 241.431 182.898 244.073 183.231 246.66C183.967 252.382 184.669 257.84 184.917 263.453C185.008 265.499 184.815 267.93 184.409 270.665C184.401 270.719 184.393 270.774 184.385 270.829C184.376 270.888 184.367 270.948 184.357 271.008C184.234 271.813 184.093 272.644 183.936 273.498C183.6 275.323 183.191 277.255 182.727 279.274C182.26 281.306 181.737 283.427 181.177 285.617L181.065 286.053L180.988 286.351V286.351C180.371 288.743 179.711 291.213 179.032 293.735L178.843 294.437C178.69 295.006 178.536 295.576 178.381 296.149L178.361 296.223L178.353 296.257V296.257C175.12 308.239 171.625 321.191 170.239 332.462ZM240.151 135.896L240.147 135.907L240.141 135.919C239.233 138.047 238.31 140.21 237.459 142.454L230.835 159.778C229.606 162.985 222.862 162.745 220.045 160.467C229.187 142.873 235.121 125.849 235.601 106.577C235.631 105.258 237.249 103.969 237.969 103.939C238.598 103.913 239.433 104.323 240.174 104.686C240.28 104.738 240.385 104.789 240.486 104.838H240.456C238.148 111.372 239.497 118.086 244.862 122.552C244.01 126.567 242.494 130.371 240.851 134.251L240.807 134.355L240.71 134.585C240.566 134.925 240.421 135.265 240.275 135.606L240.151 135.896ZM286.947 286.023L283.41 286.832C278.195 306.914 272.29 326.246 264.108 345.189C267.545 353.652 272.207 360.557 276.994 367.646L277.535 368.448C277.942 369.046 278.31 369.954 278.701 370.945L278.772 371.124C279.834 373.825 281.122 377.098 283.98 376.84C287.926 376.21 290.934 372.784 293.833 369.482C295.072 368.07 296.292 366.68 297.557 365.54C321.236 344.11 340.448 319.353 354.175 290.549C355.91 286.908 357.748 283.36 359.576 279.833C364.729 269.89 369.792 260.12 372.159 248.947C368.142 245.327 363.552 243.413 358.923 241.482C357.268 240.792 355.607 240.099 353.966 239.326C341.917 233.631 328.129 228.296 315.601 226.108C314.939 225.994 314.033 225.619 313.054 225.213C310.665 224.222 307.822 223.044 306.909 224.999C304.398 232.24 302.124 239.406 299.895 246.434L299.859 246.549L299.853 246.565C298.636 250.401 297.431 254.196 296.208 257.939L298.636 260.756C339.159 262.015 317.159 305.415 286.947 286.023ZM305.083 47.1435L305.281 47.236L305.666 47.4148L305.679 47.4211L305.717 47.4384L305.779 47.4674C306.078 47.6063 306.379 47.7453 306.681 47.8838C304.844 51.0197 300.422 53.4917 297.193 52.1762C294.166 50.9429 291.951 46.9312 290.084 43.5483L289.866 43.1549L289.794 43.0237L289.7 42.8547C295.815 42.8277 300.336 44.9331 305.083 47.1435ZM48.741 339.059C54.4957 346.222 62.118 354.69 68.5321 361.044C66.464 351.992 64.9354 342.821 64.0363 333.589V324.632L62.6588 315.271C59.3342 303.172 63.9247 255.139 68.4924 246.685C68.2558 247.036 67.8716 247.513 67.5431 247.568C62.6576 248.317 44.9737 242.023 40.268 239.146C35.2625 236.118 28.8184 228.625 26.1209 223.44C24.5923 261.325 28.7885 298.192 45.8129 332.9L48.741 339.059ZM419.004 410.303C415.833 408.602 413.097 405.704 410.317 402.759C406.051 398.24 401.681 393.61 395.474 393.025L412.588 405.673C414.655 407.683 416.311 409.3 417.578 410.597C418.064 410.493 418.54 410.395 419.004 410.303ZM404.286 305.505L397.973 314.094L397.901 314.107C383.784 336.796 365.981 354.75 344.4 367.968C367.03 338.924 390.139 305.955 401.348 270.077C407.193 273.314 412.378 278.2 416.934 284.704C413.517 291.837 409.321 298.761 404.286 305.505ZM338.268 413.585C337.663 414.242 337.057 414.899 336.449 415.554L336.188 415.834C341.254 418.382 347.188 419.071 350.485 416.943C368.859 405.074 384.265 390.358 399.011 374.382C402.398 370.696 405.335 367.339 406.175 361.764C404.749 364.053 402.746 365.121 400.786 366.166C399.616 366.789 398.461 367.405 397.453 368.268C383.306 380.347 368.619 390.268 352.973 400.129C347.476 403.594 342.879 408.582 338.268 413.585ZM408.184 238.606C414.178 241.349 418.86 244.89 423.839 248.657C425.326 249.782 426.84 250.927 428.423 252.076C430.66 246.634 429.893 242.536 429.124 238.424L429.093 238.259C428.815 236.772 428.542 235.28 428.416 233.72C426.678 212.02 422.751 191.159 413.07 171.857C411.538 176.26 411.755 180.431 411.971 184.588C412.094 186.939 412.216 189.286 412.021 191.668L408.184 238.606ZM253.644 81.0697C257.211 82.8081 258.5 87.8735 258.44 91.2304L258.41 91.2004C258.483 91.3638 258.552 91.5323 258.622 91.7047C259.066 92.797 259.574 94.0478 261.827 95.1868L282.178 69.1705C279.091 61.9771 273.786 57.1815 267.701 53.2551L252.925 71.0888L253.644 81.0697ZM326.261 110.347C327.227 109.728 328.182 109.117 329.237 108.735L329.267 108.765L357.502 98.514C346.112 87.8737 328.998 88.6231 316.829 97.7048C316.739 103.01 317.968 107.836 319.496 112.391C322.385 112.83 324.346 111.573 326.261 110.347ZM280.438 182.947C282.735 182.756 285.033 182.846 287.33 182.936L287.478 182.941C288.727 182.99 289.977 183.037 291.227 183.037C291.033 178.931 291.968 174.82 292.903 170.706L292.906 170.693C293.542 167.894 294.178 165.094 294.459 162.294C294.759 159.308 294.654 156.321 293.716 153.334L279.329 165.174L280.438 182.947ZM51.3282 213.579C41.1075 203.238 56.9631 159.508 69.4017 140.326L92.3607 104.898L120.835 70.8492L142.445 50.4379L155.183 40.487C161.238 35.7513 169.93 30.3862 177.693 29.4271C183.841 28.6674 189.068 33.3785 193.492 37.3664C194.654 38.4139 195.761 39.4117 196.815 40.2472C194.645 45.0998 191.09 47.0981 187.132 49.3228L186.831 49.492L186.535 49.6586C172.418 57.6613 159.44 66.9528 149.219 79.4514C116.998 118.895 91.9711 168.38 77.884 217.475C69.3418 219.603 58.4317 220.772 51.3282 213.579ZM71.6519 98.4844C69.1229 101.861 67.0678 105.271 65.0408 108.634C62.047 113.602 59.1145 118.468 54.8073 122.972C54.1044 123.704 53.745 124.869 53.3581 126.122C52.5573 128.716 51.6392 131.691 47.3141 131.994C56.8454 110.264 69.5538 89.6724 84.5102 70.34C94.8807 56.9722 106.24 44.7134 122.665 37.6699L94.3712 68.0621L71.6519 98.4844ZM112.348 246.172C113.611 252.527 114.712 258.067 118.167 264.262L132.644 233.241L111.093 240.164C111.572 242.267 111.967 244.257 112.348 246.172ZM256.61 221.642C260.476 235.849 258.048 271.187 245.22 286.773C239.435 265.822 240.215 243.732 245.969 222.571C246.809 219.484 255.89 218.945 256.64 221.642H256.61ZM212.645 287.491C208.209 278.11 206.201 266.72 213.514 257.009C215.402 267.289 214.473 276.941 212.645 287.491ZM190.79 342.97C196.869 340.635 201.392 337.372 204.629 332.193C203.204 329.388 202.232 326.794 201.309 324.332C199.849 320.435 198.513 316.87 195.705 313.328C192.618 323.878 190.999 332.72 190.79 342.97ZM157.534 363.547C149.33 370.592 139.564 372.92 129.712 375.27C127.511 375.794 125.306 376.32 123.113 376.9C117.898 367.848 112.953 358.976 112.743 348.785L117.928 323.489C120.506 322.529 123.023 325.707 123.023 328.434C132.431 341.586 143.486 352.103 157.534 363.547ZM167.355 392.545C159.082 399.469 140.289 405.224 134.684 397.161C142.178 395.899 149.334 392.478 155.162 389.691C160.967 386.916 165.456 384.77 167.654 386.011C169.033 386.82 169.123 391.047 167.355 392.545Z" fill="#EF6A22"/>
</svg>